<?xml version="1.0" encoding="UTF-8"?><svg xmlns="http://www.w3.org/2000/svg" xmlns:xlink="http://www.w3.org/1999/xlink" height="34.5" preserveAspectRatio="xMidYMid meet" version="1.0" viewBox="-0.0 0.0 500.0 34.5" width="500.0" zoomAndPan="magnify"><g><g><g id="change1_1"><path d="M17.47,32.51c-.14-.03-.26-.05-.36-.08-.03,0-.06-.01-.1-.02h-.05c-.24-.07-.56-.15-.87-.24-.55-.16-1.05-.35-1.51-.57h0c-.51-.25-.92-.53-1.22-.83l-.19-.19c-.22,0-.44-.02-.66-.02-.47-.01-.95-.02-1.43-.02-.48,0-.95,0-1.42,0-.47,0-.94,.02-1.39,.04-.11,0-.23,0-.34,.02h-.19s-.08,.07-.12,.1c-.18,.13-.39,.25-.6,.37-.22,.11-.44,.22-.68,.32-.47,.2-.98,.37-1.5,.51-1.04,.28-2.09,.44-2.98,.52-.75,.07-1.38,.09-1.86,.1H0c.48,0,1.12,.03,1.86,.1,.89,.08,1.95,.24,2.98,.52,.52,.14,1.03,.31,1.5,.51,.24,.1,.46,.21,.68,.32,.21,.12,.42,.24,.6,.37,.04,.03,.08,.06,.12,.09h.19l.34,.02c.46,.02,.92,.03,1.39,.04,.12,0,.24,0,.35,0h1.07c.48,0,.95,0,1.42-.02,.22,0,.44-.01,.66-.02l.19-.19c.3-.3,.71-.58,1.22-.83h0c.45-.22,.96-.41,1.51-.58,.43-.13,.92-.25,1.43-.35h-.07Z"/><path d="M498.14,32.43c-.89-.08-1.95-.24-2.98-.52-.52-.14-1.03-.31-1.5-.51-.24-.1-.46-.21-.68-.32-.21-.12-.42-.24-.6-.37-.04-.03-.08-.06-.12-.09h-.19c-.11-.01-.23-.02-.34-.02-.46-.02-.92-.03-1.39-.04-.47,0-.95-.01-1.42,0-.48,0-.95,0-1.43,.02-.22,0-.44,.01-.66,.02l-.19,.19c-.3,.3-.71,.57-1.22,.83h0c-.45,.22-.96,.41-1.51,.58-.31,.09-.63,.17-.87,.23h-.05s-.06,.03-.1,.03c-.1,.02-.22,.05-.36,.08h-.07c.52,.11,1,.23,1.43,.36,.55,.16,1.06,.35,1.51,.57h0c.51,.25,.93,.53,1.22,.83l.19,.19c.22,0,.44,.02,.66,.02,.47,.01,.95,.02,1.42,.02h1.07c.12,0,.24,0,.35,0,.47,0,.93-.02,1.39-.04l.34-.02h.19s.08-.07,.12-.1c.18-.13,.39-.25,.6-.37,.22-.11,.44-.22,.68-.32,.47-.2,.98-.37,1.5-.51,1.04-.28,2.09-.44,2.98-.52,.75-.07,1.38-.09,1.86-.1h0c-.48,0-1.12-.03-1.86-.1Z"/><path d="M479.15,30.89c-.9,0-1.64,.73-1.64,1.64s.73,1.64,1.64,1.64,1.64-.73,1.64-1.64-.73-1.64-1.64-1.64Z"/><circle cx="20.85" cy="32.52" r="1.64"/><path d="M475.2,30.92c-.66,0-1.23,.4-1.47,.97h-4.88c-.23-.42-.68-.71-1.19-.71s-.96,.29-1.19,.71H33.53c-.23-.42-.68-.71-1.19-.71s-.96,.29-1.19,.71h-4.88c-.25-.57-.81-.97-1.47-.97-.89,0-1.61,.72-1.61,1.61s.72,1.61,1.61,1.61c.66,0,1.23-.4,1.47-.97h4.88c.23,.42,.68,.71,1.19,.71s.96-.29,1.19-.71H466.47c.23,.42,.68,.71,1.19,.71s.96-.29,1.19-.71h4.88c.25,.57,.81,.97,1.47,.97,.89,0,1.61-.72,1.61-1.61s-.72-1.61-1.61-1.61Z"/><path d="M248.48,4.32c.16,.67,.46,1.32,.85,1.9,.2,.29,.42,.56,.66,.82l.02,.02,.02-.02c.24-.25,.46-.53,.66-.82,.39-.58,.69-1.22,.85-1.9,.08-.34,.13-.68,.14-1.02,0-.34-.02-.69-.09-1.02v-.05l-.02-.05-.02-.09c-.02-.06-.03-.13-.05-.19-.04-.12-.08-.25-.13-.37l-.04-.09s-.03-.06-.04-.09l-.02-.04-.02-.04-.04-.09-.05-.09-.02-.04-.02-.04-.05-.08s-.03-.05-.05-.07c-.07-.1-.15-.2-.24-.29-.09-.09-.18-.19-.27-.27-.09-.08-.19-.16-.28-.21-.05-.03-.09-.05-.13-.06h-.05V0h-.02s-.03,0-.07,.02c-.04,.01-.08,.04-.13,.06-.09,.06-.19,.13-.28,.21-.09,.08-.19,.17-.27,.27-.09,.09-.17,.19-.24,.29-.02,.02-.03,.05-.05,.07l-.05,.08-.02,.04-.02,.04-.05,.09-.04,.09-.02,.04-.02,.04s-.03,.06-.04,.09l-.04,.09c-.05,.12-.09,.24-.13,.37-.02,.06-.04,.12-.05,.19l-.02,.09v.05l-.02,.05c-.07,.33-.1,.68-.09,1.02,0,.34,.06,.69,.14,1.02Z"/><path d="M248.36,12.16c.59,.57,1.14,1.19,1.64,1.84,.5-.65,1.05-1.27,1.64-1.84-.03-.02-.06-.05-.09-.07l-.16-.14c-.11-.09-.22-.18-.34-.28-.11-.09-.23-.18-.34-.27l-.17-.13c-.06-.04-.12-.09-.18-.13-.12-.09-.24-.17-.36-.25-.12,.08-.24,.17-.36,.25-.06,.04-.12,.08-.18,.13l-.17,.13c-.12,.09-.23,.18-.34,.27-.11,.09-.23,.18-.34,.28l-.16,.14s-.06,.05-.09,.07Z"/><path d="M248.79,9.25l.1,.05c.13,.07,.27,.14,.4,.22,.24,.14,.48,.28,.71,.43,.23-.15,.47-.29,.71-.43,.13-.08,.27-.15,.4-.22l.1-.05,.1-.05,.2-.1-.22-.11c-.35-.18-.69-.39-1-.63-.1-.08-.2-.15-.29-.23-.1,.08-.19,.16-.29,.23-.31,.24-.65,.45-1,.63l-.22,.11,.2,.1,.1,.05Z"/><path d="M203.03,27.23s.05-.05,.08-.07l.09-.08c.26-.22,.65-.53,1.21-.85,.55-.32,1.26-.66,2.11-.96,.43-.15,.89-.3,1.38-.44,.5-.14,1.02-.27,1.57-.38,.55-.11,1.14-.2,1.75-.26,.15-.02,.31-.03,.46-.04,.08,0,.16-.01,.24-.02,.08,0,.16-.01,.24-.02h.24l.12-.02h.37l.25-.02c.66-.01,1.34,.02,2.05,.07,.7,.05,1.42,.14,2.16,.26,.73,.12,1.48,.27,2.24,.45,.76,.18,1.53,.39,2.31,.63,.78,.24,1.56,.49,2.35,.79,.79,.29,1.59,.61,2.39,.95,.81,.34,1.61,.67,2.41,1,.4,.16,.8,.32,1.2,.48l.3,.12c.1,.04,.21,.08,.31,.11,.2,.08,.41,.15,.62,.22,.05,.02,.1,.03,.15,.05l.15,.05,.15,.05,.08,.02,.08,.02c.21,.06,.41,.12,.62,.17,.1,.03,.21,.05,.31,.08l.31,.07c.05,.01,.1,.02,.15,.03l.15,.03,.31,.06c.82,.15,1.63,.25,2.43,.3h.3c.1,.02,.2,.02,.3,.02h.29c.1,0,.2,0,.29,0,.19,0,.39,0,.58-.02h.29c.1-.02,.19-.03,.29-.04,.19-.01,.38-.04,.56-.06,.09,0,.19-.03,.28-.04,.09-.01,.18-.03,.27-.04l.27-.05,.13-.02,.13-.03,.26-.06s.09-.02,.13-.03l.13-.03c.69-.17,1.34-.39,1.95-.64,.61-.25,1.17-.54,1.69-.84,.52-.3,.98-.63,1.41-.96,.11-.08,.21-.16,.31-.25l.15-.12,.07-.06s.05-.04,.07-.06c.09-.08,.19-.17,.28-.25l.26-.25s.08-.08,.12-.12l.12-.12s.08-.08,.12-.12l.11-.12,.11-.12,.05-.06,.05-.06,.2-.24s.06-.08,.09-.12l.09-.11c.06-.08,.12-.15,.17-.22,.11-.15,.21-.29,.3-.42l.13-.2c.04-.06,.08-.13,.12-.19l.11-.18c.04-.06,.07-.12,.1-.17l.09-.16,.04-.07,.04-.07,.13-.26c.04-.08,.07-.14,.1-.2l.07-.15,.06-.12-.07,.11-.09,.14c-.04,.05-.08,.12-.13,.19l-.17,.23-.05,.07-.05,.07-.11,.14s-.08,.1-.12,.15l-.13,.16c-.05,.05-.09,.11-.14,.17l-.15,.18c-.1,.12-.22,.24-.34,.37-.06,.07-.13,.13-.19,.19l-.1,.1s-.07,.07-.1,.1l-.22,.2-.06,.05-.06,.05-.12,.1-.12,.1s-.08,.07-.12,.1l-.13,.1s-.09,.07-.13,.11c-.71,.56-1.57,1.11-2.58,1.59-.51,.24-1.05,.45-1.63,.63-.58,.18-1.19,.33-1.83,.44l-.12,.02s-.08,.01-.12,.02l-.24,.03-.12,.02h-.12l-.25,.04c-.08,0-.17,.01-.25,.02-.08,0-.17,.01-.25,.02-.17,0-.34,.02-.51,.02-.09,0-.17,0-.26,0h-.26c-.18,0-.35-.01-.53-.02-.09,0-.18,0-.27-.02l-.27-.02c-.09,0-.18-.02-.27-.02h-.14l-.07-.02h-.07c-.73-.09-1.47-.21-2.22-.39l-.28-.07-.14-.03s-.09-.03-.14-.04l-.28-.08c-.09-.03-.19-.06-.28-.08-.19-.05-.37-.12-.56-.18l-.07-.02-.07-.02-.14-.05-.14-.05s-.09-.03-.14-.05c-.19-.07-.37-.14-.56-.21-.09-.04-.19-.07-.28-.11l-.29-.12c-.39-.16-.78-.33-1.17-.49-.79-.34-1.59-.68-2.41-1.02-.82-.34-1.65-.66-2.47-.96-.83-.3-1.66-.55-2.48-.77-.82-.22-1.64-.41-2.44-.57-.81-.15-1.6-.27-2.39-.35-.78-.08-1.55-.13-2.29-.13-.75,0-1.47,.02-2.17,.08l-.26,.02-.26,.03h-.13l-.13,.03-.25,.03c-.08,.01-.17,.02-.25,.04-.08,.01-.16,.02-.25,.04-.16,.03-.32,.05-.48,.09-.64,.12-1.24,.27-1.81,.44-.57,.17-1.1,.36-1.59,.56-.49,.2-.95,.4-1.37,.61-.84,.41-1.52,.85-2.05,1.25-.52,.4-.88,.77-1.1,1.03l-.08,.09s-.05,.06-.07,.08c-.04,.05-.08,.09-.1,.13l-.08,.11,.09-.09s.07-.07,.12-.11Z"/><path d="M219.94,18.86c.05,.15,.11,.31,.19,.45,.08,.15,.17,.29,.27,.42,.1,.13,.21,.26,.34,.38,.25,.23,.54,.42,.85,.56,.31,.14,.65,.22,.99,.23,.17,.01,.34,0,.51-.02,.02,0,.04,0,.06,0h.06s.08-.02,.12-.03c.04,0,.08-.02,.13-.03l.06-.02s.04-.01,.06-.02c.33-.11,.62-.28,.86-.5,.24-.22,.42-.48,.55-.76,.12-.28,.19-.57,.19-.84,0-.14,0-.27-.02-.4,0-.03-.01-.06-.02-.1,0-.03-.01-.06-.02-.1,0-.03-.02-.06-.03-.09,0-.03-.02-.06-.03-.09-.09-.24-.22-.44-.37-.59-.15-.16-.32-.27-.47-.35-.16-.08-.31-.12-.45-.15-.14-.02-.25-.03-.35-.02-.05,0-.09,0-.13,.01-.04,0-.07,0-.09,.01l-.07,.02h.07s.05,0,.09,0c.04,0,.08,0,.12,.01,.09,.01,.2,.03,.32,.08,.12,.04,.25,.11,.38,.2,.13,.09,.25,.21,.35,.37,.1,.15,.18,.33,.22,.52,.04,.19,.04,.41,0,.62-.04,.21-.12,.42-.24,.61-.12,.19-.28,.36-.46,.48-.19,.13-.4,.22-.62,.26h-.08s-.06,.02-.08,.02c-.03,0-.06,0-.09,0h-.04s-.03,0-.04,0c-.12,0-.23,0-.35-.03-.23-.04-.45-.12-.64-.23-.2-.11-.37-.25-.52-.41-.07-.08-.14-.17-.19-.26-.06-.09-.11-.18-.15-.27-.04-.09-.07-.19-.1-.29-.02-.1-.04-.19-.05-.29-.02-.2-.02-.4,0-.59,0-.09,.02-.19,.04-.28,0-.02,.01-.05,.02-.07,0-.02,0-.05,.02-.07,.01-.05,.03-.1,.04-.15,0-.02,.02-.05,.02-.07l.03-.07v-.04l.03-.04,.03-.07,.03-.07,.02-.04,.02-.04,.04-.07,.04-.07,.02-.04,.02-.03,.05-.07,.05-.07,.02-.03,.03-.03,.05-.07,.06-.06s.04-.04,.06-.06c.02-.02,.04-.04,.06-.06,.04-.04,.08-.08,.13-.12,.04-.04,.09-.07,.14-.11,.02-.02,.05-.03,.07-.05l.04-.03,.04-.02,.07-.05,.08-.04s.05-.03,.08-.04c.03-.01,.05-.03,.08-.04,.05-.02,.11-.05,.17-.07,.06-.02,.11-.04,.17-.06,.03-.01,.06-.02,.09-.03,.03,0,.06-.02,.09-.02l.09-.02s.06-.01,.09-.02l.09-.02h.09s.06-.02,.09-.02h.09c.06-.01,.13-.01,.19-.02,.25,0,.51,.01,.75,.06,.25,.05,.48,.12,.71,.21,.45,.19,.84,.46,1.15,.75,.04,.04,.08,.07,.11,.11l.1,.11,.1,.12,.02,.03,.02,.03,.04,.06,.04,.06,.04,.06s.05,.08,.08,.11l.07,.11,.02,.03,.02,.03,.03,.05c.06,.1,.11,.21,.16,.32,.07,.17,.1,.36,.14,.54,.04,.19,.09,.37,.14,.56,.11,.39,.24,.77,.39,1.15,.01,.04,.03,.07,.04,.11,.29,.72,.67,1.45,1.14,2.16,.47,.71,1.04,1.41,1.71,2.05,.33,.32,.69,.63,1.07,.91,.38,.29,.78,.56,1.2,.81,.84,.5,1.76,.9,2.72,1.2l.18,.05c.06,.02,.12,.04,.18,.05l.18,.05,.09,.02,.09,.02c.25,.06,.51,.11,.76,.15,.51,.08,1.04,.12,1.56,.13,1.05,0,2.11-.16,3.11-.47,1-.32,1.96-.78,2.81-1.38,.85-.59,1.61-1.3,2.23-2.09,.63-.79,1.12-1.65,1.48-2.53l.07-.17,.06-.17,.03-.08,.03-.08,.06-.17c.07-.22,.14-.44,.19-.67,.01-.06,.03-.11,.04-.17l.04-.17s.01-.05,.02-.08l.02-.09,.03-.17,.03-.17,.02-.17,.02-.17c0-.06,.02-.11,.02-.17l.03-.34s0-.06,0-.09v-.96l-.02-.18c0-.06,0-.12-.02-.18l-.05-.36c-.02-.12-.04-.24-.06-.36,0-.03-.01-.06-.02-.09l-.02-.09-.04-.18c-.11-.48-.27-.95-.47-1.41l-.08-.17-.04-.09s-.03-.06-.04-.09l-.17-.34c-.06-.11-.13-.22-.19-.33l-.02-.04-.03-.04-.05-.08-.1-.16c-.57-.86-1.31-1.63-2.18-2.25-.87-.62-1.86-1.08-2.91-1.33-.06-.02-.13-.03-.2-.04l-.2-.04-.1-.02s-.07-.01-.1-.02l-.21-.03c-.07-.01-.14-.02-.21-.02l-.21-.02h-.21l-.1-.02h-.1c-.55-.01-1.11,.04-1.65,.16-.54,.12-1.06,.31-1.55,.55l-.05,.02s-.03,.02-.05,.02l-.09,.05c-.06,.03-.12,.06-.18,.1l-.17,.1-.09,.05s-.06,.04-.08,.06l-.17,.11s-.06,.04-.08,.06l-.08,.06-.08,.06s-.05,.04-.08,.06l-.16,.13c-.41,.34-.78,.73-1.1,1.15-.32,.42-.58,.87-.79,1.35-.21,.47-.35,.96-.45,1.45l-.02,.09s0,.06-.01,.09l-.03,.19c0,.06-.01,.13-.02,.19v.09s-.01,.06-.01,.09v.56c0,.06,0,.12,.01,.19,.04,.49,.15,.97,.32,1.41,.16,.45,.39,.86,.64,1.23,.13,.18,.27,.36,.42,.52l.06,.06,.03,.03,.03,.03,.12,.12s.08,.07,.12,.11c.04,.04,.08,.07,.12,.11,.33,.28,.68,.51,1.04,.69,.36,.18,.73,.31,1.1,.4l.14,.03,.14,.03s.09,.02,.14,.03l.14,.02s.05,0,.07,0h.07l.14,.02h.2s.04,0,.07,0c.36,0,.7-.05,1.01-.13,.32-.08,.61-.2,.87-.33,.26-.14,.49-.29,.69-.46,.2-.17,.38-.34,.52-.52,.15-.17,.27-.35,.37-.52,.1-.17,.18-.33,.24-.47l.04-.11,.02-.05s.01-.03,.02-.05l.03-.1,.02-.05v-.04c.03-.06,.05-.11,.06-.16l.03-.13s0-.04,.01-.06v-.05l.02-.08v0l-.03,.07v.05s-.03,.04-.03,.05l-.05,.13s-.04,.1-.06,.15l-.02,.04-.02,.04-.04,.09s-.01,.03-.02,.05l-.03,.05-.05,.1c-.08,.13-.16,.28-.28,.43-.11,.15-.24,.3-.4,.45-.16,.15-.33,.3-.54,.43-.2,.13-.43,.26-.68,.36-.25,.1-.52,.17-.8,.22-.28,.05-.59,.05-.89,.03-.31-.03-.61-.1-.93-.21-.31-.11-.62-.25-.91-.44-.29-.19-.57-.41-.82-.66-.03-.03-.06-.07-.09-.1-.03-.03-.06-.07-.09-.1l-.09-.1-.02-.03-.02-.03-.04-.05c-.11-.14-.21-.3-.3-.46-.37-.64-.58-1.39-.58-2.16,0-.05,0-.1,0-.14v-.14l.02-.14,.02-.14s0-.05,0-.07v-.07s.03-.1,.04-.14l.03-.14s.01-.05,.02-.07l.02-.07c.11-.39,.26-.76,.45-1.12,.19-.36,.43-.69,.7-1,.27-.3,.57-.58,.91-.82l.13-.09s.04-.03,.06-.04l.06-.04,.06-.04s.04-.03,.07-.04l.13-.07s.04-.03,.07-.04l.07-.03,.14-.07s.09-.04,.14-.06l.07-.03,.03-.02h.04c.38-.16,.77-.27,1.17-.34,.4-.06,.8-.07,1.2-.04h.07l.07,.02,.15,.02,.15,.03s.1,.01,.15,.03l.15,.03s.05,.01,.07,.02l.07,.02,.15,.04s.1,.03,.15,.04c.79,.24,1.51,.63,2.13,1.12,.62,.49,1.14,1.09,1.54,1.74l.07,.12,.04,.06,.02,.03,.02,.03,.13,.25,.12,.25s.02,.04,.03,.06l.03,.06,.05,.13c.13,.34,.24,.69,.31,1.04l.03,.13v.06s.02,.04,.02,.07c.01,.09,.03,.17,.04,.26l.03,.26s0,.09,0,.13v.26l.02,.13v.44s0,.04-.01,.06l-.02,.25s0,.08-.01,.12l-.02,.12-.02,.12-.02,.12-.02,.12v.06s-.02,.04-.02,.06l-.03,.13s-.02,.09-.03,.13c-.04,.17-.09,.35-.14,.52l-.04,.13-.02,.06-.02,.06-.05,.13-.05,.13c-.26,.69-.62,1.37-1.09,2-.46,.63-1.03,1.22-1.68,1.72-.65,.5-1.39,.92-2.18,1.22-.79,.3-1.64,.49-2.5,.55-.43,.03-.86,.02-1.29-.01-.22-.02-.43-.04-.64-.08h-.08l-.08-.03-.16-.03c-.05,0-.11-.02-.16-.03l-.16-.03c-.86-.19-1.69-.48-2.46-.86-.39-.19-.76-.4-1.12-.63-.36-.23-.7-.48-1.02-.74-.65-.52-1.22-1.11-1.72-1.72-.5-.61-.91-1.26-1.24-1.9-.34-.64-.6-1.29-.79-1.9-.1-.31-.18-.61-.24-.9-.07-.29-.12-.58-.16-.85-.08-.55-.12-1.05-.13-1.49,0-.44,0-.82,.03-1.13,0-.04,0-.08,0-.11v-.11c.02-.07,.02-.13,.03-.19l.02-.16c0-.05,.01-.1,.02-.14l.03-.25-.06,.24s-.02,.08-.03,.13l-.04,.16c-.01,.06-.03,.12-.04,.19l-.02,.11s-.01,.07-.02,.11c-.06,.31-.11,.69-.15,1.13-.04,.45-.05,.96-.03,1.53,.01,.28,.04,.58,.08,.89v.06s-.04-.09-.06-.13l-.03-.07-.04-.07-.04-.07-.02-.04-.02-.03s-.05-.09-.08-.14l-.09-.14s-.07-.09-.1-.14c-.14-.19-.31-.38-.5-.55-.19-.18-.41-.34-.66-.49-.24-.15-.51-.27-.79-.37-.28-.1-.59-.16-.9-.2-.08,0-.16-.02-.23-.02h-.12s-.08,0-.12,0h-.24s-.08,.01-.12,.02h-.12s-.08,.03-.12,.03c-.04,0-.08,.01-.12,.02-.08,.02-.16,.03-.24,.06-.08,.02-.16,.05-.24,.07-.04,.01-.08,.03-.12,.04-.04,.01-.08,.03-.11,.05l-.11,.05-.11,.06s-.04,.02-.06,.03l-.05,.03s-.07,.04-.11,.06c-.07,.04-.14,.09-.21,.14-.07,.05-.13,.1-.2,.15-.03,.03-.06,.05-.09,.08-.03,.03-.06,.05-.09,.08l-.09,.09s-.06,.06-.08,.09l-.04,.04-.04,.05-.08,.09-.07,.1s-.02,.03-.04,.05l-.03,.05s-.05,.07-.07,.1l-.06,.1s-.02,.03-.03,.05l-.03,.05-.06,.1-.05,.1-.03,.05-.02,.05-.04,.11s-.03,.07-.04,.11c-.03,.07-.05,.14-.07,.21-.01,.04-.02,.07-.03,.11,0,.04-.02,.07-.03,.11-.03,.14-.05,.28-.07,.42-.03,.28-.02,.57,.03,.87,.02,.15,.06,.31,.11,.46Z"/><path d="M277.64,23.84c-.82,.22-1.66,.48-2.48,.77-.83,.29-1.65,.62-2.47,.96-.82,.34-1.62,.69-2.41,1.02-.39,.17-.78,.33-1.17,.49l-.29,.12c-.1,.04-.19,.08-.28,.11-.19,.08-.37,.14-.56,.21-.05,.02-.09,.03-.14,.05l-.14,.05-.14,.05-.07,.02-.07,.02c-.19,.06-.37,.12-.56,.18-.09,.03-.19,.06-.28,.08l-.28,.08s-.09,.03-.14,.04l-.14,.03-.28,.07c-.75,.17-1.49,.3-2.22,.38h-.14l-.14,.03c-.09,0-.18,.02-.27,.02l-.27,.02c-.09,0-.18,.01-.27,.02-.18,0-.36,.02-.53,.02h-.26c-.09,0-.17,0-.26,0-.17,0-.34-.01-.51-.02-.09,0-.17-.01-.25-.02-.08,0-.17-.01-.25-.02l-.25-.03h-.12l-.12-.03-.24-.03s-.08-.01-.12-.02l-.12-.02c-.64-.11-1.26-.25-1.83-.44-.58-.18-1.12-.4-1.63-.63-1.01-.47-1.88-1.03-2.58-1.59-.05-.03-.09-.07-.13-.11l-.13-.1s-.08-.07-.12-.1l-.12-.1-.12-.1-.06-.05-.06-.05-.22-.2s-.07-.07-.1-.1l-.1-.1c-.07-.07-.13-.13-.19-.19-.12-.13-.24-.25-.34-.37l-.15-.18c-.05-.06-.09-.12-.14-.17l-.13-.16c-.04-.05-.08-.1-.12-.15l-.11-.14-.05-.07-.05-.07-.17-.23c-.05-.07-.09-.13-.13-.19l-.09-.14-.07-.11,.06,.12,.07,.15c.03,.06,.06,.13,.1,.2l.13,.26,.04,.07,.04,.07,.09,.16c.03,.05,.06,.11,.1,.17l.11,.18c.04,.06,.08,.13,.12,.19l.13,.2c.09,.14,.19,.28,.3,.42,.05,.07,.11,.15,.17,.22l.09,.11s.06,.08,.09,.12l.2,.24,.05,.06,.05,.06,.11,.12,.11,.12s.08,.08,.12,.12l.12,.12s.08,.08,.12,.12l.26,.25c.09,.08,.18,.17,.28,.25,.02,.02,.05,.04,.07,.06l.07,.06,.15,.12c.1,.09,.2,.17,.31,.25,.42,.33,.89,.65,1.41,.96,.52,.3,1.08,.59,1.69,.84,.61,.25,1.26,.47,1.95,.64l.13,.03s.09,.02,.13,.03l.26,.06,.13,.03,.13,.02,.27,.05c.09,.02,.18,.03,.27,.04,.09,.01,.18,.03,.28,.04,.19,.02,.37,.04,.56,.06,.09,0,.19,.02,.29,.02h.29c.19,.03,.38,.03,.58,.03,.1,0,.19,0,.29,0h.29c.1,0,.2,0,.3-.01h.3c.8-.06,1.61-.15,2.43-.31l.31-.06,.15-.03c.05-.01,.1-.02,.15-.03l.31-.07c.1-.02,.21-.05,.31-.08,.21-.05,.41-.11,.62-.17l.08-.02,.08-.02,.15-.05,.15-.05c.05-.02,.1-.03,.15-.05,.21-.07,.41-.14,.62-.22,.1-.04,.21-.08,.31-.11l.3-.12c.4-.16,.8-.32,1.2-.48,.8-.33,1.6-.67,2.41-1,.81-.33,1.61-.66,2.39-.95,.79-.3,1.57-.55,2.35-.79,.78-.24,1.55-.45,2.31-.63,.76-.18,1.51-.33,2.24-.45,.73-.12,1.46-.2,2.16-.26,.7-.05,1.39-.08,2.05-.07h.49l.12,.02h.12l.24,.02c.08,0,.16,.01,.24,.02,.08,0,.16,0,.24,.02,.16,.01,.31,.03,.46,.04,.61,.06,1.2,.15,1.75,.26,.56,.11,1.08,.24,1.57,.38,.49,.14,.96,.28,1.38,.44,.85,.31,1.56,.64,2.11,.96,.55,.32,.95,.63,1.21,.85l.09,.08s.05,.05,.08,.07c.05,.04,.09,.08,.12,.11l.09,.09-.08-.11s-.06-.08-.1-.13c-.02-.03-.04-.05-.07-.08l-.08-.09c-.23-.26-.58-.63-1.1-1.03-.52-.4-1.21-.84-2.05-1.25-.42-.21-.88-.41-1.37-.61-.49-.2-1.02-.39-1.59-.56-.57-.17-1.17-.32-1.81-.44-.16-.03-.32-.06-.48-.09-.08-.01-.16-.03-.25-.04-.08-.01-.17-.03-.25-.04l-.25-.03-.13-.02h-.13l-.26-.04-.26-.02c-.7-.06-1.42-.09-2.17-.08-.75,0-1.51,.05-2.29,.13-.78,.08-1.58,.2-2.39,.35-.81,.15-1.62,.35-2.44,.57Z"/><path d="M251.61,13.75l-.04,.09-.08,.17c-.2,.46-.36,.94-.47,1.41l-.04,.18-.02,.09s-.01,.06-.02,.09c-.02,.12-.04,.24-.06,.36l-.05,.36c0,.06-.01,.12-.02,.18v.18l-.02,.09v.87s0,.06,0,.09l.03,.34c0,.06,.01,.11,.02,.17l.02,.17,.02,.17,.03,.17,.03,.17,.02,.09s.01,.06,.02,.08l.04,.17c.01,.06,.03,.11,.04,.17,.06,.22,.12,.44,.19,.67l.06,.17,.03,.08,.03,.08,.06,.17,.07,.17c.36,.88,.85,1.75,1.48,2.53,.62,.79,1.38,1.5,2.23,2.09,.85,.59,1.8,1.06,2.81,1.38,1,.32,2.06,.48,3.11,.47,.52,0,1.05-.04,1.56-.13,.26-.04,.51-.09,.76-.15l.09-.02,.09-.02,.18-.05c.06-.02,.12-.03,.18-.05l.18-.05c.97-.29,1.89-.7,2.72-1.2,.42-.25,.82-.52,1.2-.81,.38-.29,.73-.6,1.07-.91,.67-.64,1.24-1.33,1.71-2.05,.48-.71,.85-1.44,1.14-2.16,.02-.04,.03-.07,.04-.11,.15-.37,.28-.76,.39-1.15,.05-.18,.1-.37,.14-.56,.04-.18,.07-.37,.14-.54,.05-.11,.1-.21,.16-.32l.03-.05,.02-.03,.02-.03,.07-.11s.05-.07,.08-.11l.04-.06,.04-.06,.04-.06,.02-.03,.02-.03,.1-.12,.1-.11s.07-.07,.11-.11c.31-.3,.7-.57,1.15-.75,.22-.09,.46-.17,.71-.21,.25-.05,.5-.07,.75-.06,.06,0,.13,0,.19,0h.09s.06,.02,.09,.02h.09l.09,.03s.06,.01,.09,.02l.09,.02s.06,.02,.09,.02c.03,0,.06,.02,.09,.03,.06,.02,.11,.04,.17,.06,.06,.02,.11,.05,.17,.07,.03,.01,.05,.03,.08,.04,.03,.01,.05,.03,.08,.04l.08,.04,.07,.05,.04,.02,.04,.03s.05,.03,.07,.05c.05,.04,.09,.07,.14,.11,.04,.04,.09,.08,.13,.12,.02,.02,.04,.04,.06,.06,.02,.02,.04,.04,.06,.06l.06,.06,.05,.07,.03,.03,.02,.03,.05,.07,.05,.07,.02,.03,.02,.04,.04,.07,.04,.07,.02,.04,.02,.04,.03,.07,.03,.07,.02,.04v.04l.04,.07s.02,.05,.02,.07c.02,.05,.03,.1,.04,.15,0,.02,.01,.05,.02,.07,0,.02,.01,.05,.02,.07,.02,.1,.03,.19,.04,.28,.02,.19,.02,.38,0,.59-.01,.1-.03,.19-.05,.29-.03,.1-.06,.19-.1,.29-.04,.09-.09,.19-.15,.27-.06,.09-.12,.17-.19,.26-.14,.16-.32,.3-.52,.41-.2,.11-.42,.19-.64,.23-.11,.02-.23,.03-.35,.03-.01,0-.03,0-.04,0h-.04s-.06,0-.09,0c-.03,0-.06,0-.08,0h-.08c-.22-.05-.43-.14-.62-.27-.19-.13-.34-.29-.46-.48-.12-.19-.2-.4-.24-.61-.04-.21-.04-.43,0-.62,.04-.19,.12-.37,.22-.52,.1-.15,.23-.27,.35-.37,.13-.09,.26-.16,.38-.2,.12-.04,.23-.07,.32-.08,.05,0,.09,0,.12-.01,.04,0,.07,0,.09,0h0s-.05-.02-.09-.03c-.04,0-.08,0-.13-.01-.09,0-.21,0-.35,.02-.14,.02-.29,.07-.45,.15-.16,.08-.33,.19-.47,.35-.15,.16-.28,.36-.37,.59-.01,.03-.02,.06-.03,.09,0,.03-.02,.06-.03,.09,0,.03-.02,.06-.02,.1,0,.03-.01,.06-.02,.1-.02,.13-.03,.26-.02,.4,0,.28,.07,.57,.19,.84,.12,.28,.31,.54,.55,.76,.24,.22,.53,.39,.86,.5,.02,0,.04,.01,.06,.02l.06,.02s.08,.02,.13,.03c.04,0,.08,.02,.12,.02h.06s.04,.02,.06,.02c.17,.02,.34,.03,.51,.02,.34-.02,.68-.1,.99-.23,.31-.14,.6-.33,.85-.56,.12-.12,.24-.24,.34-.38,.1-.13,.19-.28,.27-.42,.08-.15,.14-.3,.19-.45,.05-.15,.09-.31,.11-.46,.05-.3,.05-.59,.03-.87-.01-.14-.04-.28-.07-.42,0-.04-.02-.07-.03-.11,0-.04-.02-.07-.03-.11-.02-.07-.04-.14-.07-.21-.01-.04-.03-.07-.04-.11l-.04-.11-.02-.05-.03-.05-.05-.1-.06-.1-.03-.05s-.02-.03-.03-.05l-.06-.1s-.04-.07-.07-.1l-.03-.05s-.02-.03-.04-.05l-.07-.1-.08-.09-.04-.05-.04-.04s-.05-.06-.08-.09l-.09-.09s-.06-.06-.09-.08c-.03-.03-.06-.05-.09-.08-.06-.05-.13-.1-.2-.15-.07-.05-.14-.09-.21-.14-.04-.02-.07-.04-.11-.06l-.05-.03s-.04-.02-.06-.03l-.11-.06-.11-.05s-.08-.03-.11-.05c-.04-.01-.08-.03-.12-.04-.08-.03-.16-.05-.24-.07-.08-.02-.16-.04-.24-.06-.04,0-.08-.01-.12-.02-.04,0-.08-.01-.12-.02h-.12s-.08-.02-.12-.02h-.24s-.08,0-.12,0h-.12c-.08,0-.16,.02-.23,.02-.31,.03-.61,.1-.9,.2-.28,.1-.55,.22-.79,.37-.24,.15-.46,.31-.66,.49-.19,.18-.36,.36-.5,.55-.03,.05-.07,.09-.1,.14l-.09,.14s-.06,.09-.08,.14l-.02,.03-.02,.04-.04,.07-.04,.07-.03,.07s-.04,.09-.06,.13v-.06c.03-.31,.06-.61,.07-.89,.03-.57,0-1.08-.03-1.53-.04-.45-.09-.83-.15-1.13,0-.04-.01-.08-.02-.11l-.02-.11c-.01-.07-.03-.13-.04-.19l-.04-.16s-.02-.09-.03-.13l-.06-.24,.03,.25s.01,.09,.02,.14l.02,.16c0,.06,.01,.12,.02,.19v.11s.02,.07,.02,.11c.02,.31,.04,.69,.03,1.13,0,.44-.05,.94-.13,1.49-.04,.27-.09,.56-.16,.85-.07,.29-.15,.6-.24,.9-.19,.62-.45,1.26-.79,1.9-.34,.64-.75,1.29-1.24,1.9-.49,.61-1.07,1.2-1.72,1.72-.32,.26-.67,.51-1.02,.74-.36,.23-.73,.44-1.12,.63-.78,.38-1.61,.67-2.46,.86l-.16,.03c-.05,.01-.11,.02-.16,.03l-.16,.03h-.08l-.08,.03c-.21,.04-.43,.06-.64,.08-.43,.04-.86,.04-1.29,.01-.86-.06-1.7-.24-2.5-.55-.79-.3-1.53-.72-2.18-1.22-.65-.5-1.22-1.09-1.68-1.72-.46-.63-.82-1.31-1.09-2l-.05-.13-.05-.13-.02-.06-.02-.06-.04-.13c-.05-.17-.1-.35-.14-.52-.01-.04-.02-.09-.03-.13l-.03-.13s-.01-.04-.01-.06v-.06l-.03-.12-.02-.12-.02-.12-.02-.12s-.01-.08-.01-.12l-.02-.25s0-.04,0-.06v-.82s.01-.09,.02-.13l.03-.26c.01-.09,.03-.17,.04-.26,0-.02,0-.04,.01-.07v-.06l.04-.13c.08-.35,.18-.69,.31-1.04l.05-.13,.03-.06s.02-.04,.03-.06l.12-.25,.13-.25,.02-.03,.02-.03,.04-.06,.07-.12c.4-.65,.91-1.24,1.54-1.74,.62-.49,1.35-.88,2.13-1.12,.05-.02,.1-.03,.15-.04l.15-.04,.07-.02s.05-.01,.07-.02l.15-.03s.1-.02,.15-.03l.15-.03,.15-.02h.11l.04-.02c.4-.03,.8-.02,1.2,.04,.4,.06,.79,.17,1.17,.32h.04l.03,.03,.07,.03s.09,.04,.14,.06l.14,.07,.07,.03s.04,.02,.07,.04l.13,.07s.04,.03,.07,.04l.06,.04,.06,.04s.04,.03,.06,.04l.13,.09c.33,.23,.64,.51,.91,.82,.27,.3,.51,.64,.7,1,.19,.36,.34,.73,.45,1.12l.02,.07s.01,.05,.02,.07l.03,.14s.02,.1,.03,.14v.07s.02,.05,.02,.07l.02,.14v.14l.02,.07v.07s0,.1,0,.14c0,.77-.21,1.52-.58,2.16-.09,.16-.19,.31-.3,.46l-.04,.05-.02,.03-.02,.03-.09,.1s-.06,.07-.09,.1c-.03,.03-.06,.07-.09,.1-.25,.26-.53,.48-.82,.66-.29,.18-.6,.33-.91,.44-.31,.11-.62,.19-.93,.21-.31,.03-.61,.02-.89-.03-.28-.04-.55-.12-.8-.22-.25-.1-.47-.22-.68-.36-.2-.13-.38-.28-.54-.43-.16-.15-.29-.3-.4-.45-.11-.15-.2-.29-.28-.43l-.05-.1-.03-.05s-.01-.03-.02-.05l-.04-.09-.02-.04-.02-.04c-.02-.05-.04-.11-.06-.15l-.05-.13s-.01-.04-.02-.05v-.05l-.04-.07-.02-.06v.06l.02,.08v.05s.02,.04,.02,.06l.03,.13s.03,.1,.05,.16v.04l.03,.05,.03,.1s.01,.03,.02,.05l.02,.05,.04,.11c.06,.14,.14,.3,.24,.47,.1,.17,.22,.34,.37,.52,.15,.17,.32,.35,.52,.52,.2,.17,.43,.32,.69,.46,.26,.14,.55,.25,.87,.33,.31,.08,.66,.13,1.01,.13,.02,0,.04,0,.07,0h.2l.14-.02h.07s.05-.01,.07-.01l.14-.02s.09-.02,.14-.03l.14-.03,.14-.03c.37-.09,.74-.22,1.1-.4,.36-.18,.71-.41,1.04-.69,.04-.03,.08-.07,.12-.11,.04-.04,.08-.07,.12-.11l.12-.12,.03-.03,.03-.03,.06-.06c.15-.16,.29-.34,.42-.52,.26-.37,.48-.78,.64-1.23,.17-.44,.27-.92,.32-1.41,0-.06,0-.12,.01-.19v-.56s0-.06,0-.09v-.09c-.01-.06-.02-.13-.03-.19l-.03-.19s0-.06-.01-.09l-.02-.09c-.09-.49-.24-.98-.45-1.45-.2-.47-.47-.92-.79-1.35-.32-.42-.68-.81-1.1-1.15l-.16-.13s-.05-.04-.08-.06l-.08-.06-.08-.06s-.05-.04-.08-.06l-.17-.11s-.06-.04-.08-.06l-.09-.05-.17-.1c-.06-.03-.12-.06-.18-.1l-.09-.05s-.03-.02-.05-.02l-.05-.02c-.49-.24-1.01-.43-1.55-.55-.54-.12-1.09-.17-1.65-.16h-.21l-.21,.02-.21,.02c-.07,0-.14,.01-.21,.02l-.21,.03s-.07,.01-.1,.02l-.1,.02-.2,.04c-.07,.01-.13,.03-.2,.04-1.05,.25-2.04,.71-2.91,1.33-.87,.62-1.61,1.39-2.18,2.25l-.1,.16-.05,.08-.03,.04-.02,.04c-.06,.11-.13,.22-.19,.33l-.17,.34s-.03,.06-.04,.09Z"/><path d="M227.12,28.82c-.19-.08-.38-.16-.57-.24H33.82v.64H228.09c-.32-.13-.65-.27-.97-.4Z"/><path d="M246.31,28.58c-.31,.23-.63,.44-.96,.64h9.3c-.33-.2-.65-.42-.96-.64h-7.37Z"/><path d="M272.88,28.82c-.32,.13-.64,.27-.96,.4h194.27v-.64h-192.73c-.19,.08-.38,.16-.58,.24Z"/></g></g></g></svg>