<?xml version="1.0" encoding="UTF-8"?><svg xmlns="http://www.w3.org/2000/svg" xmlns:xlink="http://www.w3.org/1999/xlink" height="927.1" preserveAspectRatio="xMidYMid meet" version="1.0" viewBox="0.0 -31.7 4015.9 927.1" width="4015.9" zoomAndPan="magnify"><g id="change1_1"><path d="M1125.392,656.544c0-4.738-2.791-8.614-6.206-8.614c-7.61,0-12.473,7.085-8.868,12.921 C1115.004,668.426,1125.392,665.459,1125.392,656.544z" fill="inherit" transform="translate(-48.681 -284.508)"/><path d="M1090.937,669.464c8.11,0,11.71-8.39,6.038-14.062c-4.191-4.19-14.652,1.563-14.652,8.062 C1082.323,666.764,1086.2,669.464,1090.937,669.464z" fill="inherit" transform="translate(-48.681 -284.508)"/><path d="M3037.631,691.313c0,11.039,14.256,9.785,16.418-1.443c0.995-5.168-1.326-7.485-7.49-7.485 C3040.396,682.385,3037.631,685.15,3037.631,691.313z" fill="inherit" transform="translate(-48.681 -284.508)"/><path d="M1071.81,682.385c7.253,0,8.355-11.086,1.525-15.307c-6.081-3.76-14.381,4.544-10.625,10.625 C1064.304,680.275,1068.399,682.385,1071.81,682.385z" fill="inherit" transform="translate(-48.681 -284.508)"/><path d="M3041.938,669.464c0-4.738-2.7-8.614-6-8.614c-6.495,0-12.253,10.461-8.058,14.652 C3033.552,681.175,3041.938,677.57,3041.938,669.464z" fill="inherit" transform="translate(-48.681 -284.508)"/><path d="M1171.423,701.137c3.988,3.988,11.181,1.266,13.278-5.026c0.952-2.856-2.257-5.112-7.27-5.112 C1168.486,690.999,1165.803,695.521,1171.423,701.137z" fill="inherit" transform="translate(-48.681 -284.508)"/><path d="M1151.233,660.851c0-4.738-2.584-8.614-5.741-8.614c-8.101,0-11.28,4.139-8.575,11.185 C1140.432,672.583,1151.233,670.644,1151.233,660.851z" fill="inherit" transform="translate(-48.681 -284.508)"/><path d="M2085.771,770.727c7.554-9.096,2.166-19.432-10.125-19.432c-10.086,0-15.668,7.024-15.668,19.73 C2059.978,779.164,2078.954,778.949,2085.771,770.727z" fill="inherit" transform="translate(-48.681 -284.508)"/><path d="M2967.946,652.973c1.034-7.029-0.84-9.35-7.537-9.35c-8.743,0-12.589,12.115-5.952,18.752 C2959.591,667.513,2966.517,662.69,2967.946,652.973z" fill="inherit" transform="translate(-48.681 -284.508)"/><path d="M2082.007,666.467c-12.072-7.541-25.552,7.554-17.86,19.997c4.341,7.033,28.649,2.089,31.944-6.495 c3.906-10.177,10.013-7.055,12.727,6.503c7.066,35.328,84.673,40.533,84.673-17.016c0-26.737-39.179-45.131-52.591-24.691 c-7.111,10.84-1.848,31.074,8.467,32.538c13.23,1.878,18.123-11.383,7.158-19.398c-9.057-6.624-1.636-15.604,9.398-11.37 c21.521,8.256,18.972,46.958-3.614,54.878c-42.457,14.889-55.313-15.444-53.504-126.281 c1.822-111.892,7.158-125.217,56.144-140.257c28.683-8.808,27.766-11.379,25.699,71.95c-3.277,131.759,19.088,175.56,89.634,175.56 c82.76,0,105.634-80.008,53.384-186.71c-33.107-67.609-22.189-118.344,23.317-108.347c24.76,5.44,27.525,42.517,2.821,37.797 c-67.604-12.925,22.852,164.384,108.373,212.426c98.2,55.166,151.188,69.969,263.992,73.742 c136.777,4.574,184.906-15.418,184.85-76.791c-0.017-24.708-16.827-50.562-33.576-51.652c-36.302-2.364-57.406,16.465-47.741,42.59 c7.029,19.002,38.271,20.083,38.271,1.331c0-11.383-11.822-20.423-18.27-13.976c-6.839,6.835-11.878,6.254-11.878-1.374 c0-24.988,43.073-23.266,56.088,2.244c30.859,60.494-48.995,101.366-93.859,48.039c-29.687-35.282-40.188-57.402-46.428-97.774 c-7.3-47.203-37.698-83.966-69.435-83.966c-53.047,0-83.859,43.658-61.024,86.473c12.576,23.584,11.094,25.505-19.652,25.505 c-111.849,0-195.802-158.121-109.656-206.539c37.706-21.194,84.849,14.394,61.136,46.148 c-12.632,16.922-20.759,20.699-34.278,15.944c-12.395-4.359-13.123-13.433-0.943-11.805c14.213,1.904,19.596-11.775,8.248-20.966 c-20.931-16.947-39.455,18.722-20.04,38.589c14.001,14.329,50.041,4.036,58.646-16.745c4.99-12.038,10.042-27.687,4.001-40.139 c-7.522-15.504-31.05-22.108-47.078-24.408c-78.595-11.278-111.348,118.233-14.94,192.929 c40.428,31.324,121.578,49.903,129.36,29.622c1.83-4.776,4.849-5.017,14.975-1.197c26.409,9.97,57.488-20.819,45.472-45.045 c-5.741-11.581-24.661-15.892-31.66-7.214c-7.822,9.69,1.18,24.963,14.807,25.126l11.981,0.142l-10.168,8.472 c-25.062,20.88-58.827-1.154-55.459-36.19c6.434-66.963,102.946-61.622,106.599,5.9c1.788,33.042-0.026,38.921-18.05,58.474 c-47.543,51.579-184.428,66.756-184.428,20.449c0-33.325-55.841-27.351-56.054,3.984c-0.039,5.366-1.477,7.675-3.23,5.172 c-1.74-2.481-9.949-9.208-18.24-14.949c-78.445-54.314-151.235-189.127-96.577-178.872c29.067,5.453,33.942-41.384,5.827-55.924 c-33.804-17.481-70.098,9.807-68.483,51.484c0.965,24.975,0.814,25.251-8.808,16.289c-14.199-13.235-60.916-31.005-81.49-31.005 c-8.347,0-8.881-2.459-8.881-41.053c0-90.969-76.368-125.8-101.377-60.316c-16.6,43.459,30.039,73.883,58.257,38.007 c14.897-18.942,3.833-44.52-16.469-38.073c-17.581,5.577-16.276,23.912,1.701,23.912c12.602,0,13.73,6.589,2.184,12.765 c-32.4,17.344-53.069-21.194-25.26-47.104c35.549-33.12,72.351,6.904,72.351,78.695v31.927 c-23.051,2.046-52.392,5.356-93.687,3.928c-42.634-1.473-43.951-0.62-25.354,16.413 C2102.426,464.394,2109.708,683.767,2082.007,666.467z M2798.153,670.128c9.47,13.524,2.11,23.774-19.717,27.46 c-23.218,3.924-63.207,4.763-96.12,2.024c-24.403-2.033-26.875-3.678-24.316-16.151c0.366-1.779,13.739-3.601,29.717-4.053 c15.978-0.452,41.651-4.785,57.048-9.634C2780.37,658.564,2790.095,658.628,2798.153,670.128z M2654.322,658.697 c0-1.184,8.721-5.121,19.381-8.747c45.569-15.478,72.495-49.053,88.118-30.221c11.521,13.881-8.015,34.175-42.896,44.567 c-30.346,9.036-64.603,10.802-64.603,3.325V658.697z M2640.596,677.333c0.999,10.095-0.405,13.666-5.384,13.666 c-4.854,0-6.732-4.311-6.732-15.436C2628.481,656.105,2638.649,657.586,2640.596,677.333z M2497.402,617.472 c13.881-15.337,35.717-5.668,30.682,13.584c-3.088,11.801,24.2,24.407,61.213,28.274c28.83,3.015,39.412,10.246,30.57,20.901 c-15.231,18.346-79.382-19.381-89.182-19.381C2512.221,660.851,2487.41,628.515,2497.402,617.472z M2203.124,580.778 c-4.117-70.731,28.636-122.947,53.508-85.293c6.34,9.596,8.093,6.18-31.216,60.761c-11.796,16.379-13.498,74.457-2.179,74.457 c1.934,0,2.584-4.858,1.451-10.789c-8.153-42.646,38.869-104.096,66.032-86.296c16.672,10.922,14.023,27.185-5.711,35.049 c-41.82,16.659-50.442,26.763-50.92,59.688C2233.315,681.911,2206.625,640.906,2203.124,580.778z M2253.751,441.525 c89.488,29.377,134.748,178.463,66.79,220.006c-41.156,25.161-87.877-6.796-73.04-49.959c7.365-21.426,10.539-24.174,31.104-26.931 c28.899-3.876,47.487,25.242,27.598,43.241c-11.771,10.651-18.605,9.04-15.427-3.639c3.053-12.163-13.558-16.426-18.076-4.643 c-10.319,26.892,29.351,32.724,47.014,6.913c17.908-26.164-8.007-117.422-36.522-128.633c-2.046-0.801-6.228-3.971-9.294-7.037 c-9.897-9.893-40.958-23.8-53.319-23.868c-16.612-0.09-20.738-4.156-20.681-20.389 C2199.963,429.13,2212.422,427.958,2253.751,441.525z" fill="inherit" transform="translate(-48.681 -284.508)"/><path d="M2947.187,669.004c0-5.285-3.032-8.153-8.614-8.153c-8.213,0-12.219,12.184-6.038,18.364 C2937.355,684.034,2947.187,677.182,2947.187,669.004z" fill="inherit" transform="translate(-48.681 -284.508)"/><path d="M1056.482,703.919c8.11,0,11.71-8.39,6.038-14.062c-4.191-4.191-14.652,1.563-14.652,8.062 C1047.869,701.219,1051.745,703.919,1056.482,703.919z" fill="inherit" transform="translate(-48.681 -284.508)"/><path d="M2935.344,693.152c-1.589-6.361-15.121-5.237-17.348,1.439C2915.157,703.106,2936.654,698.376,2935.344,693.152z" fill="inherit" transform="translate(-48.681 -284.508)"/><path d="M1501.177,585.188c-21.939,0.202-31.216,1.891-31.224,5.677c-0.03,14.109,70.008,1.736,108.576-19.178 c86.438-46.871,103.506-170.779,27.951-202.891c-45.545-19.355-95.422,42.44-60.429,74.87 c20.591,19.079,43.099,18.838,55.838-0.607c12.52-19.105-5.956-45.48-24.032-34.308c-10.009,6.185-5.142,23.838,6.572,23.838 c18.304,0,9.522,10.621-9.979,12.072c-41.66,3.092-39.593-45.179,2.907-67.928c15.362-8.222,47.909,9.208,58.396,31.272 C1671.986,484.236,1595.983,584.297,1501.177,585.188z" fill="inherit" transform="translate(-48.681 -284.508)"/><path d="M1452.712,703.493c10.66-2.395,27.133-5.844,36.608-7.662c20.625-3.962,45.106-11.917,69.939-22.727 c10.044-4.372,19.079-7.946,20.078-7.946c4.595,0,67.264-37.818,86.563-52.233c10.12-7.559,19.596-15.963,28.516-24.901 c68.453-68.582,94.97-148.937,73.319-164.729c-5.339-3.894-11.498-2.899-17.603-2.377c-5.803,0.496-10.479,3.408-14.498-2.236 c-12.648-17.762,17.313-43.786,34.563-35.961c11.454,5.195,21.834,18.023,24.7,30.25c5.854,24.973-4.724,52.815-15.349,74.97 c-52.16,108.769-28.593,194.501,53.444,194.427c62.51-0.056,84.858-45.554,84.858-172.752c0-95.582-2.442-89.742,33.081-79.19 c42.048,12.485,53.069,43.714,53.03,150.257c-0.039,104.915-26.892,148.392-66.924,108.356 c-16.65-16.65-9.738-45.416,10.909-45.416c12.326,0,13.803,5.793,3.476,13.627c-12.791,9.699-0.805,26.694,12.809,18.162 c18.399-11.534,6.297-40.403-16.943-40.403c-34.704,0-40.967,53.249-8.364,71.127c20.716,11.357,53.655-1.533,61.515-24.071 c5.142-14.755,10.069-15.948,16.469-3.988c5.948,11.112,19.919,11.064,25.888-0.09c8.2-15.319-8.062-25.139-16.538-9.988 c-9.953,17.779-13.623-11.56-13.993-111.84c-0.401-109.079,0.112-111.883,22.943-124.985 c18.588-10.668,15.289-11.564-48.922-13.248c-76.933-2.024-71.498,2.235-67.419-52.815c4.595-61.98,38.611-89.449,72.889-58.862 c23.434,20.905,4.203,61.338-24.024,50.506c-9.906-3.803-8.351-14.613,2.102-14.613c11.4,0,9.988-18.563-1.585-20.768 c-19.911-3.799-28.3,27.56-10.677,39.903c31.556,22.103,66.209-11.891,50.584-49.619c-6.486-15.66-18.756-21.233-46.441-21.104 c-51.757,0.245-49.73,38.039-53.581,124.231l-17.753,2.959c-73.496,12.223-88.77,62.076-85.176,16.896 c4.92-61.859-41.181-75.483-67.345-49.238c-14.018,14.061-21.044,50.442,8.561,48.135c28.124-2.192,19.503,34.7,13.166,52.638 c-21.341,60.413-150.877,172.123-136.294,134.107c1.266-3.299-3.467-9.897-10.905-15.195 c-16.978-12.085-34.575-5.297-39.899,15.393c-11.508,44.731-139.817,31.212-185.69-19.557 c-48.4-53.573,6.133-140.877,64.943-103.967c30.333,19.036,29.48,75.512-1.184,78.329c-25.768,2.369-40.605-9.191-19.041-14.828 c10.767-2.817,10.039-19.015-1.163-26.039c-20.522-12.86-31.879,21.896-13.446,41.135c35.631,37.19,85.508-13.993,61.657-63.263 c-28.916-59.736-113.132-35.023-123.016,36.096c-14.734,106.009-89.074,166.197-142.944,115.734 c-30.135-28.231,6.581-86.822,42.397-67.656c9.72,5.203,7.102,12.705-4.44,12.705c-12.318,0-19.01,10.664-13.338,21.259 c9.979,18.644,34.601,5.952,34.601-17.835c0-40.187-57.97-40.183-77.118,0.009C1161.677,681.933,1312.382,735.027,1452.712,703.493 z M1892.786,634.738c-13.45,18.192-18.003,16.004-18.003-8.657c0-27.783-12.572-46.475-37.086-55.128 c-31.944-11.28-41.07-28.748-21.663-41.462c32.052-21,88.187,60.141,66.093,95.53c-1.749,2.795-1.348,6.215,0.892,7.597 c5.724,3.54,10.478-13.485,10.224-36.621c-0.233-21.474-11.999-48.206-32.383-73.574c-18.291-22.757-8.64-47.552,15.009-38.564 C1908.777,496.372,1920.139,597.73,1892.786,634.738z M1909.785,422.911l-2.7,37.065l-22.546,5.056 c-38.594,8.652-82.851,47.009-91.503,79.306c-32.141,119.955,49.707,99.377,46.355,75.598c-1.74-12.356-18.037-11.469-19.816,1.077 c-1.843,12.977-11.133,12.287-17.313-1.279c-15.742-34.549,18.545-53.81,48.684-27.349c24.041,21.108,20.914,56.54-6.223,70.572 c-49.055,25.367-98.631-35.342-82.614-101.164C1788.49,453.395,1840.705,435.864,1909.785,422.911z M1534.542,652.194 c34.472-6.081,45.416-12.761,48.827-29.816c4.238-21.194,33.003-17.533,33.003,4.199c0,6.491-18.687,22.073-34.455,28.727 c-24.793,10.471-38.626,17.017-49.529,19.842c-20.968,5.433-45.222,17.941-45.222-6.46 C1487.167,660.648,1487.761,660.442,1534.542,652.194z M1480.026,672.553c1.413,8.713,2.016,16.392,1.339,17.068 c-3.252,3.252-11.426-10.069-11.426-18.61C1469.94,654.666,1477.304,655.79,1480.026,672.553z M1388.11,620.031 c12.137,9.858,46.355,27.163,56.566,28.61c6.839,0.969,10.19,4.273,10.19,10.057c0,24.993-99.729-0.896-109.312-28.374 C1337.513,607.261,1364.388,600.762,1388.11,620.031z M1361.295,664.55c16.177,5.108,43.822,10.724,61.437,12.481 c39.713,3.967,47.957,15.229,14.501,19.811c-63.151,8.657-123.671-0.866-125.855-19.807 C1309.101,657.242,1325.303,653.189,1361.295,664.55z" fill="inherit" transform="translate(-48.681 -284.508)"/><path d="M1179.228,716.84c-7.787,0-8.325,5.022-1.292,12.059c6.951,6.947,7.752,6.594,7.752-3.445 C1185.688,720.669,1182.815,716.84,1179.228,716.84z" fill="inherit" transform="translate(-48.681 -284.508)"/><path d="M1174.735,678.375c1.365-2.205,0.418-5.284-2.106-6.844c-6.37-3.936-18.227,1.223-14.953,6.516 C1161.04,683.492,1171.449,683.694,1174.735,678.375z" fill="inherit" transform="translate(-48.681 -284.508)"/><path d="M3022.673,660.661c2.873-4.647-5.091-17.038-10.948-17.038c-4.613,0-9.101,12.847-6.155,17.615 C3008.853,666.549,3019.254,666.195,3022.673,660.661z" fill="inherit" transform="translate(-48.681 -284.508)"/><path d="M2994.562,647.93c0-4.738-2.791-8.614-6.206-8.614c-7.61,0-12.473,7.085-8.868,12.921 C2984.174,659.813,2994.562,656.845,2994.562,647.93z" fill="inherit" transform="translate(-48.681 -284.508)"/><path d="M2970.078,700.362c-12.266,11.525-12.434,16.487-1.042,30.971c14.281,18.158,42.754,9.781,42.754-12.585 C3011.79,695.086,2987.22,684.254,2970.078,700.362z" fill="inherit" transform="translate(-48.681 -284.508)"/><path d="M2942.403,704.664c-1.37,28.834,4.91,43.564,23.051,54.077c32.413,18.782,73.509-13.644,65.404-51.609 C3020.925,660.592,2944.604,658.46,2942.403,704.664z M3006.799,748.706c-18.976,13.287-41.509,6.344-53.327-16.439 c-10.965-21.129,6.938-54.189,29.343-54.189C3019.844,678.078,3036.714,727.753,3006.799,748.706z" fill="inherit" transform="translate(-48.681 -284.508)"/><path d="M3990.241,687.053c-88.859-86.232-184.139-107.856-226.019-51.307c-19.308,26.069,3.11,85.564,26.069,69.194 c23.795-16.973,48.861-12.688,54.378,9.294c7.438,29.653-26.616,50.481-49.374,30.2c-9.621-8.579-15.754-7.584-27.848,4.509 c-21.707,21.707-8.618,62.626,25.458,79.603c46.419,23.132,142.276-14.113,219.149-85.146 C4029.188,727.568,4027.5,723.214,3990.241,687.053z M3779.253,681.743c-10.931-7.003-13.924-11.646-12.921-20.053 c1.74-14.544,11.047-17.025,15.909-4.247c2.136,5.621,6.994,12.8,10.793,15.953c3.799,3.153,6.908,8.403,6.908,11.667 C3799.943,693.096,3795.998,692.463,3779.253,681.743z M3823.334,652.263c-1.632,16.564-4.587,30.122-6.568,30.122 c-4.199,0-12.516-14.394-12.516-21.663c0-2.752-4.126-10.797-9.169-17.878c-10.905-15.315-5.719-23.938,15.63-25.979 C3826.818,615.323,3826.938,615.659,3823.334,652.263z M3768.434,791.568c-7.563-7.563-2.403-23.106,9.759-29.398 c15.565-8.045,21.75-8.317,21.75-0.956C3799.943,768.642,3772.22,795.349,3768.434,791.568z M3826.452,805.901 c-1.663,20.156-6.051,23.477-23.279,17.615c-14.988-5.099-14.841-9.169,1.4-39.158 C3823.554,749.313,3830.556,756.204,3826.452,805.901z M3957.208,673.663c-1.508,2.446-18.403,8.136-79.741,26.866 c-8.291,2.532-17.292,5.431-20.001,6.434c-24.635,9.152,27.771-49.008,53.396-59.258 C3920.591,643.813,3961.497,666.721,3957.208,673.663z M3832.645,687.342c-2.373-3.842,16.9-60.593,22.469-66.162 c23.619-23.614,36.285,10.401,13.7,36.789c-11.822,13.812-21.496,26.892-21.496,29.071 C3847.318,692.015,3835.686,692.256,3832.645,687.342z M3922.783,796.236l-15.608,8.334l-26.698-27.374 c-32.215-33.025-39.046-26.392-12.033,11.685c9.6,13.536,16.043,25.914,14.316,27.512c-16.586,15.328-48.512-7.093-36.035-25.307 c0.422-0.616-2.128-6.719-5.664-13.562c-5.96-11.525-5.75-13.343,2.869-24.717c5.112-6.753,9.57-12.753,9.906-13.33 c0.642-1.107,89.195,33.503,92.08,35.992C3949.128,778.242,3938.331,787.933,3922.783,796.236z M3993.419,744.451 c-15.16,12.757-12.421,12.653-57.811,2.222c-18.95-4.354-42.207-9.234-51.682-10.849c-27.073-4.613-37.913-23.27-13.536-23.304 c13.25-0.023,111.188-17.161,113.499-17.202C4002.52,695.06,4009.484,730.936,3993.419,744.451z" fill="inherit" transform="translate(-48.681 -284.508)"/><path d="M2938.574,755.601c-8.299,0-11.672,8.424-5.741,14.355c5.927,5.93,14.355,2.558,14.355-5.741 C2947.188,758.47,2944.315,755.601,2938.574,755.601z" fill="inherit" transform="translate(-48.681 -284.508)"/><path d="M2952.886,783.161c1.456,3.79,4.708,6.895,7.223,6.895c6.305,0,10.621-12.636,5.918-17.339 C2960.255,766.945,2949.841,775.219,2952.886,783.161z" fill="inherit" transform="translate(-48.681 -284.508)"/><path d="M3026.27,762.062c-1.365,3.553-6.15,6.46-10.634,6.46c-4.483,0-8.153,1.938-8.153,4.307s-6.783,4.307-15.074,4.307 c-10.526,0-15.074,1.947-15.074,6.46c0,9.462,30.686,8.459,43.564-1.421c5.65-4.337,13.631-9.109,17.736-10.603 c4.527-1.654,6.464-5.332,4.923-9.35C3040.306,753.749,3029.496,753.646,3026.27,762.062z" fill="inherit" transform="translate(-48.681 -284.508)"/><path d="M2929.478,735.923c-5.25-3.247-13.153,6.426-9.746,11.934c1.167,1.891,4.918,3.437,8.33,3.437 C2935.369,751.295,2936.395,740.196,2929.478,735.923z" fill="inherit" transform="translate(-48.681 -284.508)"/><path d="M2023.128,769.672c8.786,11.926,29.321-1.865,21.534-14.462c-3.954-6.396-24.321-4.458-32.689,3.114 c-7.253,6.559-8.05,6.348-12.033-3.23c-13.149-31.595-54.813-40.036-76.003-15.406c-23.963,27.865-3.377,70.029,30.092,61.627 c20.298-5.095,21.607-41.406,1.494-41.406c-9.811,0-13.011,13.089-5.289,21.625c7.671,8.472-0.426,14.906-12.796,10.16 c-22.464-8.622-13.98-50.084,11.392-55.657c36.307-7.972,50.145,21.633,50.536,108.141c0.56,122.887-16.163,161.222-70.322,161.222 h-15.634l0.952-80.753c1.688-143.22-43.099-202.374-122.702-162.067c-58.793,29.773-63.328,91.477-14.049,191.189 c28.49,57.638,13.076,108.016-29.756,97.266c-23.27-5.84-26.237-43.323-3.062-38.688c64.831,12.968-3.359-135.644-90.905-198.115 c-185.625-132.457-585.046-105.703-449.251,30.092c28.059,28.059,84.582,4.079,67.152-28.49 c-12.356-23.093-38.727-22.503-38.727,0.866c0,9.811,11.641,15.121,18.377,8.381c6.697-6.693,11.771-6.116,11.771,1.339 c0,8.118-16.633,19.626-28.374,19.626c-39.261,0-46.591-69.801-9.191-87.549c49.163-23.33,103.825,29.076,121.974,116.935 c8.347,40.428,14.346,52.324,34.92,69.284c56.213,46.337,135.274-30.518,86.322-83.919c-27.293-29.773-79.009-12.567-70.012,23.291 c4.561,18.166,28.404,25.768,34.119,10.879c4.97-12.955-1.632-24.118-12.981-21.948c-12.098,2.313-13.226-1.942-3.178-11.99 c13.317-13.321,50.541,1.189,55.688,21.706c16.663,66.394-74.676,91.779-102.714,28.546 c-28.641-64.607,43.736-125.859,141.807-120.006c44.774,2.67,58.405,9.096,54.115,25.509c-7.007,26.797,44.546,28.688,54.693,2.003 l4.565-12.007l13.597,7.791c43.624,24.984,112.762,116.97,118.296,157.389c3.364,24.532-2.997,35.992-15.604,28.119 c-20.561-12.839-30.445,29.175-11.827,50.27c30.449,34.498,94.117-16.805,72.045-58.048c-5.943-11.107-2.283-10.651,20.212,2.532 c10.298,6.034,32.758,14.531,49.908,18.881l31.186,7.912c2.242,84.317,0.519,114.011,39.524,125.859 c34.115,10.362,65.994-12.18,65.994-46.66c0-39.817-58.547-47.091-66.317-8.239c-4.845,24.222,25.143,39.903,33.692,17.619 c4.079-10.625-5.358-19.389-15.203-14.122c-9.527,5.099-11.654-3.639-2.993-12.3c14.79-14.79,45.136,3.506,40.265,24.273 c-16.835,71.83-84.113,28.498-84.169-54.206l-0.026-35.531c115.452,0,149.224,1.652,120.73-16.146 c-21.319-13.308-23.826-26.801-23.826-128.133C2010.449,775.292,2012.831,755.687,2023.128,769.672z M1311.491,771.799 c-42.547-20.492,55.309-44.279,126.901-30.85c24.721,4.638,17.051,13.355-14.751,16.758c-15.987,1.71-43.43,6.779-60.985,11.267 C1326.457,778.229,1325.006,778.311,1311.491,771.799z M1449.146,784.267c-24.48,7.813-54.103,20.944-62.953,27.904 c-22.559,17.744-48.922,13.808-43.814-6.546c4.583-18.265,62.212-41.096,104.445-41.38 C1455.185,764.189,1457.213,781.692,1449.146,784.267z M1474.113,777.135c-10.229,0-11.064-25.703-0.943-29.076 c3.639-1.21,5.384,3.209,5.384,13.64C1478.554,770.188,1476.555,777.135,1474.113,777.135z M1609.344,819.708 c-11.99,17.115-31.733,11.486-31.733-9.049c0-15.905-26.224-28.985-58.396-29.123c-26.461-0.116-37.284-6.869-33.533-20.923 c2.778-10.414,27.284-10.655,37.879-0.375c2.253,2.188,6.956,3.975,10.453,3.975C1564.38,764.215,1619.68,804.953,1609.344,819.708 z M1878.703,790.056c20.578,0,0.689,81.386-25.716,105.242c-18.472,16.685-29.825,19.101-40.347,8.579 c-9.156-9.156-8.696-27.305,0.771-30.492c44.063-14.833,57.475-29.097,57.724-61.411 C1871.273,794.19,1872.699,790.056,1878.703,790.056z M1904.173,992.598c-1.671,17.115-3.816,17.865-31.543,11.004 c-124.511-30.82-170.073-235.081-52.44-235.081c46.458,0,58.147,62.1,15.815,83.992c-25.406,13.136-51.643-12.701-37.185-36.617 c7.666-12.679,18.446-14.393,16.413-2.614c-1.589,9.225,6.353,15.845,15.014,12.52c8.704-3.338,6.947-21.896-2.554-26.982 c-30.988-16.586-53.448,17.972-43.34,66.67c11.392,54.865,58.319,104.816,99.045,105.423 C1900.276,971.163,1905.715,976.839,1904.173,992.598z M1885.18,945.507c-7.111,7.86-19.372,9.988-30.854,5.353 c-10.371-4.182-5.745-26.043,9.32-44.081c20.078-24.032,29.597-50.657,27.727-77.588c-1.783-25.781,2.675-28.628,9.023-5.758 C1910.767,860.774,1902.605,926.255,1885.18,945.507z" fill="inherit" transform="translate(-48.681 -284.508)"/><path d="M3054.467,735.975c-6.555-4.048-16.835,1.275-16.835,8.721c0,3.631,3.669,6.598,8.153,6.598 C3054.876,751.295,3061.198,740.135,3054.467,735.975z" fill="inherit" transform="translate(-48.681 -284.508)"/><path d="M2539.906,768.866c-9.63,4.548-19.028,8.269-20.884,8.269c-6.129,0-56.105,31.573-69.482,43.895 c-7.218,6.65-14.406,12.094-15.979,12.094c-1.568,0-12.145,9.204-23.498,20.458c-77.429,76.718-105.535,164.737-52.608,164.737 c10.255,0,12.615,1.835,12.615,9.807c0,33.21-37.366,39.705-55.899,9.716c-11.292-18.27-6.508-46.738,15.578-92.67 c45.976-95.616,27.15-177.024-43.387-187.602c-69.077-10.358-96.297,36.651-97.981,169.229 c-1.098,86.102-1.227,87.214-10.397,87.214c-22.994,0-52.841-21.216-66.648-47.375c-34.67-65.675-0.142-237.962,45.399-226.531 c22.124,5.552,28.705,47.483,8.256,52.612c-15.595,3.915-28.524-2.3-15.345-7.373c10.47-4.035,12.12-21.004,2.352-24.217 c-14.971-4.923-24.656,26.767-12.038,39.386c16.965,16.965,49.223-1.159,49.223-27.65c0-46.867-62.105-59.572-84.022-17.189 c-3.652,7.063-8.045,12.847-9.764,12.847c-1.714,0-2.429,45.562-1.585,101.258c1.783,117.857,1.632,118.787-21.552,135.584 c-22.396,16.224-20.393,16.896,54.473,18.291l60.296,1.124c-3.097,94.508-1.321,114.131-46.423,114.131 c-25.884,0-36.337-12.985-33.731-41.893c0.926-10.242,20.578-19.475,30.338-14.251c11.137,5.961,11.542,13.076,0.749,13.076 c-11.473,0-15.677,13.506-6.331,20.341c9.703,7.098,12.438,6.93,20.638-1.271c22.079-22.079-10.405-47.932-33.702-42.238 c-47.24,11.545-20.491,76.464,20.987,81.001c59.144,6.47,56.478-73.512,59.598-131.795c26.256,5.016,17.913,4.261,54.632-10.427 c10.659-4.259,24.528-11.241,30.811-15.513c6.288-4.277,12.102-7.77,12.92-7.765c0.823,0,1.559,11.654,1.641,25.893 c0.25,42.668,37.978,66.524,67.897,42.939c19.411-15.298,15.892-49.456-5.095-49.456c-47.914,0-14.622-81.128,62.471-152.221 c49.054-45.243,57.617-58.223,57.617-38.697c0,33.313,47.81,32.642,52.367-0.736c5.569-40.82,141.471-22.999,185.134,24.273 c43.697,47.315-5.87,133.013-60.748,105.018c-39.05-19.923-35.755-81.916,4.359-81.916c15.905,0,25.229,11.094,12.675,15.078 c-14.152,4.492-10.212,25.398,5.116,27.172c27.465,3.17,24.343-37.59-3.781-49.339c-10.401-4.346-16.745-4.794-22.714-1.598 c-6.4,3.428-9.191,2.825-12.249-2.644c-14.126-25.247-108.076,0.013-149.017,40.067c-70.865,69.327-44.572,192.809,38.404,180.366 c53.642-8.041,52.277-88.51-1.499-88.51c-18.998,0-30.82,10.905-30.82,28.425c0,21.715,31.208,26.306,33.667,4.953 c1.171-10.199-0.177-11.844-9.69-11.844c-14.346,0-14.286-7.64,0.086-11.249c24.842-6.232,47.724,34.192,30.747,54.318 c-43.189,51.187-110.212-16.116-88.123-88.484c19.596-64.198,79.229-105.324,152.717-105.324h24.226l-10.444,11.125 c-27.586,29.394-7.813,87.089,32.439,94.639c44.421,8.334,71.825-15.121,85.861-73.479 c23.985-99.729,67.54-143.052,123.482-122.823c14.661,5.302,39.315,38.239,31.813,54.528c-2.313,5.021-32.241,42.16-61.704,23.505 c-8.879-5.622-1.114-14.417,10.218-11.574c12.167,3.054,21.151-6.693,17.313-18.782c-3.941-12.417-25.38-11.947-34.274,0.749 c-19.028,27.167,11.215,57.272,44.249,44.05c30.014-12.007,41.596-56.618,21.883-84.302 C2863.863,716.292,2655.424,714.328,2539.906,768.866z M2201.858,845.416c7.326-45.838,27.624-74.16,28.597-39.89 c0.849,29.933,2.472,35.264,14.475,47.543c6.973,7.136,20.755,15.638,30.626,18.894c26.134,8.622,34.317,42.991,10.242,42.991 c-36.638,0-72.859-54.615-64.043-96.56c2.334-11.09,1.835-12.348-3.049-7.653c-15.199,14.617-0.878,75.284,24.144,102.283 c11.615,12.533,14.329,31.268,5.767,39.83C2221.036,980.436,2191.229,911.953,2201.858,845.416z M2263.713,994.571 c-13.752,6.366-28.365,13.343-32.478,15.509c-19.984,10.504-33.438,4.186-33.438-15.707c0-14.678,5.594-19.122,24.054-19.122 c12.843,0,32.642-10.405,56.781-29.842c51.411-41.389,57.746-146.575,8.838-146.717c-17.826-0.056-26.78,22.292-12.085,30.161 c8.915,4.772,8.937,4.75,15.474-16.672c2.787-9.126,13.502,1.8,16.892,17.223c6.387,29.08-28.675,40.265-53.508,17.064 c-34.184-31.931,4.832-93.252,45.842-72.045C2375.196,813.265,2351.995,953.703,2263.713,994.571z M2568.186,788.088 c-23.808,3.342-44.705,14.958-46.764,26.005c-3.526,18.981-18.785,26.806-27.327,8.067c-7.05-15.479,6.099-26.681,54.71-46.613 c50.256-20.608,64.129-21.913,65.942-6.193C2616.194,781.881,2618.218,781.068,2568.186,788.088z M2635.093,776.89 c-5,8.088-11.594,4.854-8.7-4.268c4.746-14.941-13.256-21.327-0.672-21.327C2633.124,751.294,2639.744,769.366,2635.093,776.89z M2757.489,826.901c-7.468,8.997-16.892,7.507-36.41-5.758c-19.953-13.562-32.379-19.747-55.05-27.413 c-27.947-9.445-19.42-18.868,16.422-18.14C2733.922,776.64,2775.569,805.117,2757.489,826.901z M2786.878,779.043 c-11.934,8.36-12.012,8.351-48.573-4.772c-17.322-6.219-42.056-11.348-58.143-12.059c-51.247-2.261-40.588-17.025,15.074-20.871 C2769.41,736.216,2818.93,756.592,2786.878,779.043z" fill="inherit" transform="translate(-48.681 -284.508)"/><path d="M2927.01,710.199c-7.412-7.412-16.805,2.558-11.331,12.025C2919.401,728.65,2942.267,725.439,2927.01,710.199z" fill="inherit" transform="translate(-48.681 -284.508)"/><path d="M3831.724,717.856c-5.991-9.514-17.477-11.835-25.527-5.151c-9.242,7.666-7.597,19.415,3.437,24.562 C3822.912,743.46,3838.963,729.355,3831.724,717.856z" fill="inherit" transform="translate(-48.681 -284.508)"/><path d="M1466.856,844.46c-1.098,3.346,4.406,4.199,17.542,2.718c71.924-8.106,153.332,64.71,155.137,138.762 c1.4,57.54-55.248,95.431-90.289,60.391c-24.945-24.945,2.489-70.008,32.762-53.805c12.503,6.693,10.392,12.873-4.397,12.873 c-9.97,0-12.921,1.93-12.921,8.459c0,20.139,26.715,18.352,34.571-2.309c5.121-13.463,1.947-21.056-11.323-27.103 c-49.946-22.757-83.889,43.478-39.055,76.21c79.289,57.888,136.604-85.543,66.162-165.568 C1579.041,854.18,1475.302,818.739,1466.856,844.46z" fill="inherit" transform="translate(-48.681 -284.508)"/><path d="M3588.968,704.776c-0.034-3.084-7.029-8.515-15.543-12.072c-32.934-13.765-56.131,22.964-31.319,49.598 c16.822,18.059,55.597,0.435,49.455-22.477C3590.165,714.63,3589.002,707.856,3588.968,704.776z M3556.606,725.453 c-3.605-5.836,1.258-12.921,8.868-12.921c3.415,0,6.206,3.876,6.206,8.614C3571.68,730.062,3561.292,733.029,3556.606,725.453z" fill="inherit" transform="translate(-48.681 -284.508)"/><path d="M3128.096,767.01c-8.558,7.201-13.071,8.937-13.325,5.125c-4.626-69.164,1.09-115.88,12.869-105.216 c19.898,18.003,81.094,22.848,109.08,8.627c18.774-9.535,64.146-36.63,72.243-43.142c55.515-44.619,141.097-54.352,167.222-19.015 c22.538,30.48,5.134,68.996-31.173,68.996c-21.65,0-38.073-35.958-23.209-50.821c14.966-14.971,39.304,4.854,27.702,22.564 c-9.204,14.045-8.933,15.337,3.243,15.337c13.235,0,25.298-17.748,21.728-31.965c-10.53-41.962-68.948-31.358-68.298,12.399 c0.762,51.264,66.071,61.045,86.189,12.908c28.305-67.747-56.635-108.093-140.334-66.657 c-38.331,18.976-44.804,22.749-52.953,30.902c-10.272,10.272-89.427,52.208-92.584,49.046c-1.473-1.469,2.567-7.184,8.98-12.692 c29.17-25.066,7.645-88.691-30.002-88.691c-38.158,0-59.18,62.893-23.972,71.726c22.408,5.625,45.455-26.565,24.717-34.524 c-10.561-4.053-19.381,1.77-19.381,12.787c0,12.61-6.658,13.394-13.007,1.529c-10.177-19.015,11.706-41.66,35.635-36.875 c32.943,6.589,39.072,46.256,11.62,75.21c-19.816,20.897-75.469,1.65-87.515-30.268c-2.537-6.714-7.094-12.21-10.125-12.21 c-5.81,0-6.926,7.477-7.386,49.529c-0.31,28.102-23.05,49.882-38.606,36.97c-7.795-6.469-16.685,3.708-11.09,12.701 c3.002,4.832,5.732,5.216,11.598,1.637c9.023-5.507,17.428-0.655,35.661,6.856c0,42.38-2.644,107.171,18.847,65.61 c16.917-32.71,72.523-43.521,93.915-18.257c30.544,36.065-9.389,88.686-47.198,62.204c-15.307-10.72-10.448-36.363,6.891-36.363 c4.931,0,5.091,1.245,0.81,6.404c-6.977,8.403-2.49,19.437,7.903,19.437c17.8,0,22.245-21.905,7.011-34.549 c-25.453-21.125-55.524,21.508-33.572,47.599c15.126,17.977,56.717,17.718,70.68-0.439 C3261.174,786.455,3182.048,721.611,3128.096,767.01z" fill="inherit" transform="translate(-48.681 -284.508)"/><path d="M3935.61,614.845c-81.292-47.535-195.961-40.665-195.961,11.741c0,11.456-7.977,14.643-16.762,6.693 c-17.352-15.707-56.454-1.546-56.454,20.445c0,11.293,12.098,24.355,22.559,24.355c15.001,0,5.319,10.595-16.409,17.955 c-34.239,11.603-61.347,10.388-64.68-2.894c-11.512-45.868-85.353-40.355-99.324,7.412l-4.135,14.135 c-26.045-0.611-71.886-0.381-86.606-7.994c-10.681-5.521-13.558-5.444-24.941,0.685c-10.642,5.728-27.576,6.874-97.929,6.628 c-120.014-0.431-84.678,7.141-61.898,7.141c15.332,0,24.971,2.183,28.52,6.46c2.95,3.553,9.914,6.46,15.479,6.46 c15.672,0,58.353,20.492,73.793,35.428c13.338,12.908,31.319,9.893,31.319-5.246c0-5.25-44.636-25.527-67.833-30.815 c-12.434-2.834-22.611-6.288-22.611-7.675c0-4.027,68.935-0.672,92.735,4.514c15.737,3.424,26.345,3.419,38.761-0.026 c35.863-9.957,79.268-6.365,85.146,7.05c21.099,48.142,82.08,57.384,98.239,14.884c4.987-13.123,42.448-12.343,70.348,1.469 c16.667,8.252,26.19,20.544,14.686,18.959c-18.192-2.502-26.987,11.09-20.053,30.988c6.193,17.766,38.064,23.123,47.513,7.993 c15.718-25.165,17.27,15.364,60.615,36.798c44.344,21.93,122.431,6.163,177.464-35.837c5.345-4.083,14.118-10.328,19.484-13.881 c13.856-9.167,51.592-45.562,68.229-59.017C4064.561,723.76,4004.416,655.075,3935.61,614.845z M3724.991,730.238 c-37.831-11.517-65.964-7.856-30.234,3.936c27.676,9.135,37.926,39.563,21.944,65.154c-9.777,15.655-37.349,8.967-37.349-9.057 c0-9.35,13.028-15.63,17.477-8.424c4.695,7.593,12.671,0.435,12.671-11.366c0-29.485-103.3-57.492-110.225-29.89 c-8.859,35.29-59.391,36.376-77.343,1.662c-24.118-46.643,30.885-92.322,67.307-55.894c6.925,6.921,12.589,15.642,12.589,19.381 c0,7.684,1.684,8.05,34.455,7.49c41.32-0.706,77.523-21.302,77.523-44.094c0-10.858-8.937-15.251-13.7-6.74 c-5.272,9.419-15.134,8.958-20.436-0.952c-4.445-8.308,9.329-26.435,20.087-26.435c30.204,0,37.642,43.478,11.452,66.941 c-8.045,7.21-14.63,14.217-14.63,15.574c0,3.101,31.156-2.446,38.206-6.805c6.06-3.743,17.783,4.591,17.783,12.645 C3752.568,731.638,3739.932,734.786,3724.991,730.238z M3890.577,835.769c-23.92,9.557-74.198,16.457-86.326,11.844 c-63.491-24.14-85.53-77.351-46.139-111.405l14.975-12.942l-16.719-18.842c-41.174-46.398-0.439-112.482,69.327-112.482 c64.012,0,211.126,93.131,211.126,133.654C4036.82,744.494,3944.003,814.42,3890.577,835.769z" fill="inherit" transform="translate(-48.681 -284.508)"/><path d="M696.254,661.105c14.854-37.121-22.124-68.539-52.604-44.688c-23.291,18.227-15.401,48.74,12.602,48.74 c15.711,0,17.077-10.871,1.848-14.691c-12.908-3.239-14.204-15.324-2.756-25.682c15.117-13.679,35.058,0.693,35.058,25.268 c0,10.306-21.788,32.331-31.987,32.331c-52.707,0-55.425-71.502-3.269-85.99c45.777-12.714,119.915,15.599,168.768,64.456 c1.184,1.184,6.999,4.94,12.921,8.351c26.599,15.315,43.689,21.771,56.859,21.483c13.554-0.302,13.218-0.668-7.33-8.019 c-11.844-4.238-35.101-17.059-51.682-28.494c-93.364-64.383-106.762-70.843-146.928-70.843c-68.031,0-107.942,53.93-68.845,93.028 C644.236,701.68,683.088,694.022,696.254,661.105z" fill="inherit" transform="translate(-48.681 -284.508)"/><path d="M3347.724,640.983c0-13.562-13.355-10.091-39.507,10.255c-56.915,44.292-125.471,60.21-165.93,38.529 c-7.58-4.061-16.233-7.382-19.23-7.382c-8.726,0,7.778,14.367,23.459,20.423c19.937,7.696,77.717,3.687,107.521-7.468 C3299.156,678.461,3347.724,650.281,3347.724,640.983z" fill="inherit" transform="translate(-48.681 -284.508)"/><path d="M3123.803,744.791c-6.947,8.368,0.224,8.708,16.332,0.771c6.396-3.153,19.213-6.142,28.485-6.645 c9.273-0.5,17.994-1.594,19.381-2.433c18.618-11.245,104.424,26.487,133.883,58.866c11.87,13.05,19.381,13.42,19.381,0.96 C3341.264,749.624,3156.182,705.776,3123.803,744.791z" fill="inherit" transform="translate(-48.681 -284.508)"/><path d="M3361.441,688.083c7.839-4.574,14.837-11.361,15.552-15.083c2.059-10.698-12.231-13.429-22.4-4.281 c-18.924,17.021-54.09,30.893-78.32,30.893c-7.8,0-15.375,1.938-16.84,4.307C3252.555,715.048,3337.973,701.792,3361.441,688.083z" fill="inherit" transform="translate(-48.681 -284.508)"/><path d="M3404.963,790.65c-3.967,35.32,32.848,56.45,57.694,33.107c22.137-20.793,5.556-60.395-19.643-46.91 c-11.801,6.314-11.53,8.209,1.912,13.321c13.42,5.104,12.972,19.51-0.891,28.671c-25.152,16.612-40.949-28.744-17.589-50.506 c33.18-30.915,78.638,21.56,50.106,57.837c-34.403,43.736-89.406,32.03-189.122-40.243 c-71.877-52.086-109.977-41.617-65.486-26.763c20.848,6.961,118.506,78.268,125.127,78.268c2.334,0,4.888,1.451,5.681,3.23 c0.788,1.774,10.156,6.598,20.815,10.711c56.234,21.711,124.825-5.539,124.881-49.611 C3498.533,740.041,3411.802,729.734,3404.963,790.65z" fill="inherit" transform="translate(-48.681 -284.508)"/><path d="M710.54,734.416c8.075-3.743,40.695-6.4,97.094-7.92c71.455-1.921,120.674-9.656,61.45-9.656 c-23.62,0-26.867-3.97-63.474-15.509c-13.618-4.298-24.764-9.346-24.764-11.224c0-1.882-2.743-3.415-6.094-3.415 c-3.355,0-11.585-5.814-18.291-12.921c-13.95-14.781-13.773-14.734-24.704-6.46c-26.078,19.74,58.747,39.823,94.311,49.623 c-36.185-1.022-105.049-1.778-119.386-8.661c-8.967-4.303-13.136-4.445-17.766-0.603c-7.59,6.294-72.659,9.397-88.712,10.453 l-8.459-18.946c-12.494-27.982-27.702-36.225-63.621-34.476c-9.768,0.474-16.082,5.483-31.293,24.82 c-10.664,13.558-29.911,14.514-63.487,3.165c-27.542-9.311-37.474-23.223-16.577-23.223c14.716,0,21.861-14.131,15.233-30.126 c-7.253-17.512-30.919-21.491-48.87-8.222c-12.469,9.221-13.291,9.303-17.641,1.809c-40.803-70.322-138.9-67.863-235.709,5.913 c-39.037,29.747-81.098,70.288-81.098,78.165c0,9.847,15.127,22.619,21.076,29.042c44.129,47.645,103.139,97.775,166.266,110.976 c60.087,12.569,108.732-3.298,125.309-40.871c6.529-14.798,8.657-16.577,14.393-12.042c18.558,14.673,25.824,16.465,39.042,9.63 c24.101-12.464,23.24-49.417-1.163-49.671l-13.915-0.142l10.035-8.364c25.475-21.228,80.615-24.062,87.438-4.492 c14.63,41.966,79.358,37.616,96.193-6.465l7.688-20.134l39.296,1.809C707.002,729.353,687.949,744.866,710.54,734.416z M320.869,841.329c-24.342,12.899-80.228,9.372-118.249-7.464c-53.999-23.915-113.592-79.429-132.603-104.17 c-10.931-14.225-11.547-12.593,14.195-37.659C192.87,586.234,311.248,563.085,353.64,639.351 c22.3,40.124-3.688,61.154-24.971,83.07l16.129,13.958C374.791,762.333,361.72,819.683,320.869,841.329z M352.542,715.647 c3.028-7.899,19.006-10.052,25.828-3.48c9.001,8.656,37.704,2.846,5.181,13.812C360.643,733.71,347.314,729.265,352.542,715.647z M586.89,729.816c-1.74,3.523-5.539,11.517-8.441,17.77c-14.471,31.164-77.549,22.189-77.549-11.034 c0-7.653-4.427-8.42-40.73-7.059c-37.47,1.413-71.248,21.168-71.248,41.677c0,11.926,7.701,17.662,11.258,8.39 c3.351-8.73,17.214-8.704,20.565,0.039c1.43,3.725,0.603,10.509-1.843,15.074c-8.807,16.457-38.249,8.209-44.843-12.563 c-3.725-11.74,8.937-38.193,22.421-46.85c26.759-17.171,28.908-21.185,14.109-26.345c-32.254-11.241-42.603-43.426-21.982-68.35 c14.604-17.654,42.59-0.672,29.157,17.697c-5.099,6.977-6.124,7.05-11.292,0.823c-8.536-10.285-13.244-8.295-13.244,5.595 c0,36.358,93.661,66.188,109.803,34.972c19.536-37.775,63.569-33.072,80.779,8.631C587.244,716.607,588.63,726.297,586.89,729.816z" fill="inherit" transform="translate(-48.681 -284.508)"/><path d="M729.163,771.343c0,7.866,17.227,6.817,17.227,1.796c0-7.093,44.856-25.462,75.008-30.712 C911.28,726.778,729.163,730.097,729.163,771.343z" fill="inherit" transform="translate(-48.681 -284.508)"/><path d="M764.694,808.498c5.78,2.076,11.977-1.546,29.278-17.124c52.496-47.255,158.518-68.156,178.846-35.256 c3.058,4.948,14.755,4.914,14.755-0.043c0-5.75-34.084-20.393-54.929-23.602C877.499,723.981,723.49,793.695,764.694,808.498z" fill="inherit" transform="translate(-48.681 -284.508)"/><path d="M1060.79,723.3c0-8.304-7.968-12.356-14.187-7.214c-20.401,16.87-34.584-1.744-34.997-45.941 c-0.366-38.93-5.276-47.69-15.716-28.029c-16.28,30.678-64.323,44.64-92.877,26.991c-31.143-19.247-22.521-67.587,13.201-74.005 c24.79-4.453,40.782,10.948,35.058,33.757c-4.018,16.017-15.815,13.704-12.58-2.463c2.688-13.433-2.076-16.237-17.52-10.306 c-16.853,6.465-4.57,31.841,15.414,31.841c26.104,0,37.909-30.699,19.058-49.55c-38.215-38.219-95.134,3.846-78.049,57.677 c9.893,31.169,74.698,41.109,101.37,15.556l12.916-12.378v13.73c0,8.631-2.149,13.726-5.797,13.726 c-3.191,0-12.107,3.144-19.812,6.99c-46.574,23.231-131.169,3.346-177.649-41.759c-16.125-15.647-29.312-19.57-29.312-8.726 c0,41.828,157.247,85.823,210.428,58.875l22.141-11.219l0.435,29.144c0.935,62.221-0.332,66.963-14.45,54.094 c-35.023-31.922-97.417-23.494-164.121,22.172c-87.343,59.796-152.695,71.106-185.517,32.099 c-30.639-36.419,9.652-88.816,47.767-62.118c24.088,16.87,8.713,59.615-15.909,44.24c-10.263-6.409-10.866-17.395-1.473-26.789 c9.299-9.298,4.238-13.446-10.211-8.364c-28.485,10.018-19.01,49.891,12.503,52.617c64.465,5.574,39.323-114.489-29.51-72.523 c-39.636,24.166-33.051,73.599,13.045,97.959c41.819,22.103,83.114,10.647,173.015-48c49.719-32.43,34.832-20.735,61.889-37.103 c17.352-10.492,22.546-7.765,10.733,5.642c-39.141,44.399-0.034,108.825,50.265,82.816c27.387-14.165,30.802-50.437,5.819-61.82 c-19.695-8.976-44.994,13.937-30.923,28.007c9.32,9.32,26.125,2.408,23.795-9.785c-2.084-10.901-0.129-12.218,9.273-6.266 c4.173,2.644,5.099,8.097,3.097,18.239c-9.07,45.976-72.174,28.089-65.899-18.679c6.917-51.579,86.843-52.69,106.314-1.477 c8.743,22.994,17.27,13.162,17.593-20.285c0.422-43.223,18.317-69.844,36.699-54.589 C1052.744,735.591,1060.79,731.87,1060.79,723.3z" fill="inherit" transform="translate(-48.681 -284.508)"/><path d="M544.261,690.998c-29.734,0-42.844,36.991-19.592,55.283c11.043,8.687,14.286,9.053,30.781,3.497 C582.304,740.729,572.837,690.998,544.261,690.998z M551.82,719.712c-1.538,7.946-7.098,10.487-15.569,7.115 c-4.272-1.701-4.397-3.613-0.547-8.256C542.663,710.185,553.521,710.952,551.82,719.712z" fill="inherit" transform="translate(-48.681 -284.508)"/><path d="M1067.116,746.768c-3.837-6.206-19.247-4.884-19.247,1.654c0,3.157,1.223,6.964,2.722,8.463 C1054.648,760.942,1070.049,751.519,1067.116,746.768z" fill="inherit" transform="translate(-48.681 -284.508)"/><path d="M1183.535,746.686c0-3.325-3.39-6.697-7.537-7.494c-7.425-1.43-10.492,7.709-4.574,13.627 C1175.937,757.333,1183.535,753.487,1183.535,746.686z" fill="inherit" transform="translate(-48.681 -284.508)"/><path d="M275.096,706.378c-8.093,8.093-8.618,15.5-1.598,22.521c7.563,7.559,18.295,6.318,26.814-3.097 C313.608,711.111,289.18,692.295,275.096,706.378z" fill="inherit" transform="translate(-48.681 -284.508)"/><path d="M307.092,740.527c-13.666,16.465-51.682,2.377-51.682-19.148c0-27.762,25.281-38.938,53.737-23.748l15.81,8.441 l10.448-12.085c34.196-39.55-10.961-92.662-74.689-87.842c-22.1,1.672-43.795,9.969-63.879,18.864 c-34.168,15.132-91.26,47.829-112.839,77.614c-8.761,12.093-9.666,19.665,3.156,34.907c6.503,7.731,15.324,12.142,22.431,18.985 c6.409,6.171,13.036,12.115,19.876,17.804c89.132,74.133,190.766,85.313,216.25,18.266 C356.565,764.03,324.009,720.143,307.092,740.527z M337.24,662.892c0,7.447-3.829,12.636-12.705,17.227 c-24.743,12.791-31.134,5.758-12.365-13.605C328.635,649.528,337.24,648.283,337.24,662.892z M274.597,661.927 c0.81-8.885,1.671-22.706,1.912-30.712c0.426-14.307,0.711-14.518,16.215-11.999c23.283,3.777,23.959,6.926,7.313,34.097 C282.125,682.549,272.417,685.835,274.597,661.927z M229.401,622.179c15.819-8.467,19.893-5.035,26.728,22.521 c3.674,14.803,7.438,29.579,8.364,32.84c2.713,9.54-8.071,10.479-13.071,1.133c-2.511-4.694-7.003-11.112-9.979-14.256 C227.053,649.209,220.675,626.848,229.401,622.179z M191.044,638.632c10.372,9.333,24.678,22.022,44.503,41.096 c19.85,19.105,16.185,27.025-7.205,15.556c-8.963-4.393-28.83-12.162-44.145-17.257 C141.762,663.904,154.58,659.123,191.044,638.632z M86.241,717.339c26.933-28.538,23.186-33.654,105.643-14.785 c42.401,9.703,83.114,33.632,45.222,26.582c-2.959-0.551-18.95,1.339-35.531,4.199C106.534,749.743,115.289,747.313,86.241,717.339 z M147.739,772.777c0-8.39,89.229-37.444,101.052-32.909c7.408,2.843,9.057,11.426,2.196,11.426 c-2.429,0-17.344,10.659-33.137,23.688c-15.798,13.028-30.764,23.571-33.266,23.429 C178.373,798.053,147.739,776.743,147.739,772.777z M251.284,815.561c-5.181,9.677-9.944,10.539-24.945,4.509 c-13.567-5.457-12.43-9.794,10.767-41.139C271.737,732.146,281.888,758.375,251.284,815.561z M300.352,824.614 c-22.46,8.54-25.858,2.972-21.81-35.76c2.959-28.296,9.217-40.39,13.683-26.44c1.451,4.544,6.361,16.224,10.909,25.957 C314.146,811.952,313.556,819.596,300.352,824.614z M338.609,784.087c-3.519,9.174-7.916,7.309-22.839-9.69 c-10.272-11.702-12.352-16.525-8.218-19.084C318.488,748.555,343.39,771.627,338.609,784.087z" fill="inherit" transform="translate(-48.681 -284.508)"/><path d="M1121.572,779.59c-5.242-3.243-14.807,9.023-11.37,14.583c4.716,7.627,15.19,4.961,15.19-3.863 C1125.392,785.71,1123.674,780.887,1121.572,779.59z" fill="inherit" transform="translate(-48.681 -284.508)"/><path d="M1071.811,759.908c-9.062,0-12.55,8.041-6.598,15.212c2.843,3.424,6.887,5.164,8.984,3.868 C1080.438,775.129,1078.534,759.908,1071.811,759.908z" fill="inherit" transform="translate(-48.681 -284.508)"/><path d="M1159.847,761.708c0,6.604-9.58,15.427,3.846,15.427c6.202,0,9.075-2.726,9.075-8.614 C1172.768,756.451,1159.847,760.063,1159.847,761.708z" fill="inherit" transform="translate(-48.681 -284.508)"/><path d="M1137.258,776.464c-3.273,3.278-3.015,6.533,0.904,11.254c7.528,9.07,13.071,8.342,13.071-1.714 C1151.234,775.628,1143.425,770.301,1137.258,776.464z" fill="inherit" transform="translate(-48.681 -284.508)"/><path d="M1082.389,745.157c0.103,6.211,5.603,12.882,15.009,18.218c46.527,26.379,85.611-32.034,50.679-75.745 c-12.757-15.961-46.204-15.005-63.014,1.8c-11.615,11.616-16.99,48.943-7.046,48.943c2.369,0,4.307-8.752,4.307-19.445 c0-34.494,40.071-47.888,63.526-21.237c32.211,36.604-17.649,85.004-53.836,52.255 C1086.687,745.123,1082.354,742.969,1082.389,745.157z" fill="inherit" transform="translate(-48.681 -284.508)"/><path d="M1084.232,777.527c-1.469,2.382-1.602,7.106-0.297,10.509c2.799,7.296,15.617,3.648,15.617-4.44 C1099.551,776.502,1087.755,771.834,1084.232,777.527z" fill="inherit" transform="translate(-48.681 -284.508)"/><path d="M1128.868,702.614c-10.987-8.17-12.175-8.243-22.611-1.408c-16,10.487-14.846,36.264,1.908,42.642 C1137.921,755.175,1154.674,721.81,1128.868,702.614z" fill="inherit" transform="translate(-48.681 -284.508)"/></g></svg>